 999
VISION3D DXF
0
SECTION
2
HEADER
0
ENDSEC
0
SECTION
2
TABLES
0
ENDSEC
0
SECTION
2
BLOCKS
 0
BLOCK
 70
0
 2
TOP_SILKSCREEN_Polygon_8
 10
0
 20
0
 30
0
0
3DFACE
8
2
 62
2
 10
0.0770000036573038
 20
0.0275000013061799
 30
0
 11
0.0770000036573038
 21
0.0125000005937181
 31
0
 12
0.0670000031823292
 22
0.0125000005937181
 32
0
 13
0.0670000031823292
 23
0.0275000013061799
 33
0
0
3DFACE
8
2
 62
2
 10
0.0770000036573038
 20
0.0275000013061799
 30
0.0300000014249235
 11
0.0770000036573038
 21
0.0125000005937181
 31
0.0300000014249235
 12
0.0670000031823292
 22
0.0125000005937181
 32
0.0300000014249235
 13
0.0670000031823292
 23
0.0275000013061799
 33
0.0300000014249235
0
3DFACE
8
2
 62
2
 10
0.0670000031823292
 20
0.0275000013061799
 30
0
 11
0.0770000036573038
 21
0.0275000013061799
 31
0
 12
0.0770000036573038
 22
0.0275000013061799
 32
0.0300000014249235
 13
0.0670000031823292
 23
0.0275000013061799
 33
0.0300000014249235
0
3DFACE
8
2
 62
2
 10
0.0770000036573038
 20
0.0275000013061799
 30
0
 11
0.0770000036573038
 21
0.0125000005937181
 31
0
 12
0.0770000036573038
 22
0.0125000005937181
 32
0.0300000014249235
 13
0.0770000036573038
 23
0.0275000013061799
 33
0.0300000014249235
0
3DFACE
8
2
 62
2
 10
0.0770000036573038
 20
0.0125000005937181
 30
0
 11
0.0670000031823292
 21
0.0125000005937181
 31
0
 12
0.0670000031823292
 22
0.0125000005937181
 32
0.0300000014249235
 13
0.0770000036573038
 23
0.0125000005937181
 33
0.0300000014249235
0
3DFACE
8
2
 62
2
 10
0.0670000031823292
 20
0.0125000005937181
 30
0
 11
0.0670000031823292
 21
0.0275000013061799
 31
0
 12
0.0670000031823292
 22
0.0275000013061799
 32
0.0300000014249235
 13
0.0670000031823292
 23
0.0125000005937181
 33
0.0300000014249235
 0
ENDBLK
 0
BLOCK
 70
0
 2
TOP_PLACE_BOUND_Polygon_51
 10
0
 20
0
 30
0
0
3DFACE
8
8
 62
8
 10
-0.0530000025173649
 20
-0.0530000025173649
 30
0
 11
-0.0530000025173649
 21
-0.0275000013061799
 31
0
 12
-0.0375000017811544
 22
0.0530000025173649
 32
0
 13
-0.0375000017811544
 23
0.0530000025173649
 33
0
0
3DFACE
8
8
 62
8
 10
-0.0530000025173649
 20
-0.0275000013061799
 30
0
 11
-0.0610000028973445
 21
-0.0275000013061799
 31
0
 12
-0.0610000028973445
 22
0.0275000013061799
 32
0
 13
-0.0610000028973445
 23
0.0275000013061799
 33
0
0
3DFACE
8
8
 62
8
 10
-0.0530000025173649
 20
-0.0275000013061799
 30
0
 11
-0.0610000028973445
 21
0.0275000013061799
 31
0
 12
-0.0530000025173649
 22
0.0275000013061799
 32
0
 13
-0.0530000025173649
 23
0.0275000013061799
 33
0
0
3DFACE
8
8
 62
8
 10
-0.0530000025173649
 20
-0.0275000013061799
 30
0
 11
-0.0530000025173649
 21
0.0275000013061799
 31
0
 12
-0.0375000017811544
 22
0.0530000025173649
 32
0
 13
-0.0375000017811544
 23
0.0530000025173649
 33
0
0
3DFACE
8
8
 62
8
 10
-0.0530000025173649
 20
0.0275000013061799
 30
0
 11
-0.0530000025173649
 21
0.0530000025173649
 31
0
 12
-0.0375000017811544
 22
0.0530000025173649
 32
0
 13
-0.0375000017811544
 23
0.0530000025173649
 33
0
0
3DFACE
8
8
 62
8
 10
-0.0530000025173649
 20
-0.0530000025173649
 30
0
 11
-0.0375000017811544
 21
0.0530000025173649
 31
0
 12
0.0375000017811544
 22
0.0610000028973445
 32
0
 13
0.0375000017811544
 23
0.0610000028973445
 33
0
0
3DFACE
8
8
 62
8
 10
-0.0375000017811544
 20
0.0530000025173649
 30
0
 11
-0.0375000017811544
 21
0.0610000028973445
 31
0
 12
0.0375000017811544
 22
0.0610000028973445
 32
0
 13
0.0375000017811544
 23
0.0610000028973445
 33
0
0
3DFACE
8
8
 62
8
 10
-0.0530000025173649
 20
-0.0530000025173649
 30
0
 11
0.0375000017811544
 21
0.0610000028973445
 31
0
 12
0.0375000017811544
 22
0.0530000025173649
 32
0
 13
0.0375000017811544
 23
0.0530000025173649
 33
0
0
3DFACE
8
8
 62
8
 10
-0.0530000025173649
 20
-0.0530000025173649
 30
0
 11
0.0375000017811544
 21
0.0530000025173649
 31
0
 12
0.0530000025173649
 22
0.0530000025173649
 32
0
 13
0.0530000025173649
 23
0.0530000025173649
 33
0
0
3DFACE
8
8
 62
8
 10
-0.0530000025173649
 20
-0.0530000025173649
 30
0
 11
0.0530000025173649
 21
0.0530000025173649
 31
0
 12
0.0530000025173649
 22
0.0275000013061799
 32
0
 13
0.0530000025173649
 23
0.0275000013061799
 33
0
0
3DFACE
8
8
 62
8
 10
-0.0530000025173649
 20
-0.0530000025173649
 30
0
 11
0.0530000025173649
 21
0.0275000013061799
 31
0
 12
0.0610000028973445
 22
0.0275000013061799
 32
0
 13
0.0610000028973445
 23
0.0275000013061799
 33
0
0
3DFACE
8
8
 62
8
 10
-0.0530000025173649
 20
-0.0530000025173649
 30
0
 11
0.0610000028973445
 21
0.0275000013061799
 31
0
 12
0.0530000025173649
 22
-0.0275000013061799
 32
0
 13
0.0530000025173649
 23
-0.0275000013061799
 33
0
0
3DFACE
8
8
 62
8
 10
0.0610000028973445
 20
0.0275000013061799
 30
0
 11
0.0610000028973445
 21
-0.0275000013061799
 31
0
 12
0.0530000025173649
 22
-0.0275000013061799
 32
0
 13
0.0530000025173649
 23
-0.0275000013061799
 33
0
0
3DFACE
8
8
 62
8
 10
-0.0530000025173649
 20
-0.0530000025173649
 30
0
 11
0.0530000025173649
 21
-0.0275000013061799
 31
0
 12
-0.0375000017811544
 22
-0.0530000025173649
 32
0
 13
-0.0375000017811544
 23
-0.0530000025173649
 33
0
0
3DFACE
8
8
 62
8
 10
0.0530000025173649
 20
-0.0275000013061799
 30
0
 11
0.0530000025173649
 21
-0.0530000025173649
 31
0
 12
0.0375000017811544
 22
-0.0530000025173649
 32
0
 13
0.0375000017811544
 23
-0.0530000025173649
 33
0
0
3DFACE
8
8
 62
8
 10
0.0530000025173649
 20
-0.0275000013061799
 30
0
 11
0.0375000017811544
 21
-0.0530000025173649
 31
0
 12
-0.0375000017811544
 22
-0.0610000028973445
 32
0
 13
-0.0375000017811544
 23
-0.0610000028973445
 33
0
0
3DFACE
8
8
 62
8
 10
0.0375000017811544
 20
-0.0530000025173649
 30
0
 11
0.0375000017811544
 21
-0.0610000028973445
 31
0
 12
-0.0375000017811544
 22
-0.0610000028973445
 32
0
 13
-0.0375000017811544
 23
-0.0610000028973445
 33
0
0
3DFACE
8
8
 62
8
 10
0.0530000025173649
 20
-0.0275000013061799
 30
0
 11
-0.0375000017811544
 21
-0.0610000028973445
 31
0
 12
-0.0375000017811544
 22
-0.0530000025173649
 32
0
 13
-0.0375000017811544
 23
-0.0530000025173649
 33
0
0
3DFACE
8
8
 62
8
 10
-0.0530000025173649
 20
-0.0530000025173649
 30
0.0300000014249235
 11
-0.0530000025173649
 21
-0.0275000013061799
 31
0.0300000014249235
 12
-0.0375000017811544
 22
0.0530000025173649
 32
0.0300000014249235
 13
-0.0375000017811544
 23
0.0530000025173649
 33
0.0300000014249235
0
3DFACE
8
8
 62
8
 10
-0.0530000025173649
 20
-0.0275000013061799
 30
0.0300000014249235
 11
-0.0610000028973445
 21
-0.0275000013061799
 31
0.0300000014249235
 12
-0.0610000028973445
 22
0.0275000013061799
 32
0.0300000014249235
 13
-0.0610000028973445
 23
0.0275000013061799
 33
0.0300000014249235
0
3DFACE
8
8
 62
8
 10
-0.0530000025173649
 20
-0.0275000013061799
 30
0.0300000014249235
 11
-0.0610000028973445
 21
0.0275000013061799
 31
0.0300000014249235
 12
-0.0530000025173649
 22
0.0275000013061799
 32
0.0300000014249235
 13
-0.0530000025173649
 23
0.0275000013061799
 33
0.0300000014249235
0
3DFACE
8
8
 62
8
 10
-0.0530000025173649
 20
-0.0275000013061799
 30
0.0300000014249235
 11
-0.0530000025173649
 21
0.0275000013061799
 31
0.0300000014249235
 12
-0.0375000017811544
 22
0.0530000025173649
 32
0.0300000014249235
 13
-0.0375000017811544
 23
0.0530000025173649
 33
0.0300000014249235
0
3DFACE
8
8
 62
8
 10
-0.0530000025173649
 20
0.0275000013061799
 30
0.0300000014249235
 11
-0.0530000025173649
 21
0.0530000025173649
 31
0.0300000014249235
 12
-0.0375000017811544
 22
0.0530000025173649
 32
0.0300000014249235
 13
-0.0375000017811544
 23
0.0530000025173649
 33
0.0300000014249235
0
3DFACE
8
8
 62
8
 10
-0.0530000025173649
 20
-0.0530000025173649
 30
0.0300000014249235
 11
-0.0375000017811544
 21
0.0530000025173649
 31
0.0300000014249235
 12
0.0375000017811544
 22
0.0610000028973445
 32
0.0300000014249235
 13
0.0375000017811544
 23
0.0610000028973445
 33
0.0300000014249235
0
3DFACE
8
8
 62
8
 10
-0.0375000017811544
 20
0.0530000025173649
 30
0.0300000014249235
 11
-0.0375000017811544
 21
0.0610000028973445
 31
0.0300000014249235
 12
0.0375000017811544
 22
0.0610000028973445
 32
0.0300000014249235
 13
0.0375000017811544
 23
0.0610000028973445
 33
0.0300000014249235
0
3DFACE
8
8
 62
8
 10
-0.0530000025173649
 20
-0.0530000025173649
 30
0.0300000014249235
 11
0.0375000017811544
 21
0.0610000028973445
 31
0.0300000014249235
 12
0.0375000017811544
 22
0.0530000025173649
 32
0.0300000014249235
 13
0.0375000017811544
 23
0.0530000025173649
 33
0.0300000014249235
0
3DFACE
8
8
 62
8
 10
-0.0530000025173649
 20
-0.0530000025173649
 30
0.0300000014249235
 11
0.0375000017811544
 21
0.0530000025173649
 31
0.0300000014249235
 12
0.0530000025173649
 22
0.0530000025173649
 32
0.0300000014249235
 13
0.0530000025173649
 23
0.0530000025173649
 33
0.0300000014249235
0
3DFACE
8
8
 62
8
 10
-0.0530000025173649
 20
-0.0530000025173649
 30
0.0300000014249235
 11
0.0530000025173649
 21
0.0530000025173649
 31
0.0300000014249235
 12
0.0530000025173649
 22
0.0275000013061799
 32
0.0300000014249235
 13
0.0530000025173649
 23
0.0275000013061799
 33
0.0300000014249235
0
3DFACE
8
8
 62
8
 10
-0.0530000025173649
 20
-0.0530000025173649
 30
0.0300000014249235
 11
0.0530000025173649
 21
0.0275000013061799
 31
0.0300000014249235
 12
0.0610000028973445
 22
0.0275000013061799
 32
0.0300000014249235
 13
0.0610000028973445
 23
0.0275000013061799
 33
0.0300000014249235
0
3DFACE
8
8
 62
8
 10
-0.0530000025173649
 20
-0.0530000025173649
 30
0.0300000014249235
 11
0.0610000028973445
 21
0.0275000013061799
 31
0.0300000014249235
 12
0.0530000025173649
 22
-0.0275000013061799
 32
0.0300000014249235
 13
0.0530000025173649
 23
-0.0275000013061799
 33
0.0300000014249235
0
3DFACE
8
8
 62
8
 10
0.0610000028973445
 20
0.0275000013061799
 30
0.0300000014249235
 11
0.0610000028973445
 21
-0.0275000013061799
 31
0.0300000014249235
 12
0.0530000025173649
 22
-0.0275000013061799
 32
0.0300000014249235
 13
0.0530000025173649
 23
-0.0275000013061799
 33
0.0300000014249235
0
3DFACE
8
8
 62
8
 10
-0.0530000025173649
 20
-0.0530000025173649
 30
0.0300000014249235
 11
0.0530000025173649
 21
-0.0275000013061799
 31
0.0300000014249235
 12
-0.0375000017811544
 22
-0.0530000025173649
 32
0.0300000014249235
 13
-0.0375000017811544
 23
-0.0530000025173649
 33
0.0300000014249235
0
3DFACE
8
8
 62
8
 10
0.0530000025173649
 20
-0.0275000013061799
 30
0.0300000014249235
 11
0.0530000025173649
 21
-0.0530000025173649
 31
0.0300000014249235
 12
0.0375000017811544
 22
-0.0530000025173649
 32
0.0300000014249235
 13
0.0375000017811544
 23
-0.0530000025173649
 33
0.0300000014249235
0
3DFACE
8
8
 62
8
 10
0.0530000025173649
 20
-0.0275000013061799
 30
0.0300000014249235
 11
0.0375000017811544
 21
-0.0530000025173649
 31
0.0300000014249235
 12
-0.0375000017811544
 22
-0.0610000028973445
 32
0.0300000014249235
 13
-0.0375000017811544
 23
-0.0610000028973445
 33
0.0300000014249235
0
3DFACE
8
8
 62
8
 10
0.0375000017811544
 20
-0.0530000025173649
 30
0.0300000014249235
 11
0.0375000017811544
 21
-0.0610000028973445
 31
0.0300000014249235
 12
-0.0375000017811544
 22
-0.0610000028973445
 32
0.0300000014249235
 13
-0.0375000017811544
 23
-0.0610000028973445
 33
0.0300000014249235
0
3DFACE
8
8
 62
8
 10
0.0530000025173649
 20
-0.0275000013061799
 30
0.0300000014249235
 11
-0.0375000017811544
 21
-0.0610000028973445
 31
0.0300000014249235
 12
-0.0375000017811544
 22
-0.0530000025173649
 32
0.0300000014249235
 13
-0.0375000017811544
 23
-0.0530000025173649
 33
0.0300000014249235
0
3DFACE
8
8
 62
8
 10
-0.0375000017811544
 20
-0.0530000025173649
 30
0
 11
-0.0530000025173649
 21
-0.0530000025173649
 31
0
 12
-0.0530000025173649
 22
-0.0530000025173649
 32
0.0300000014249235
 13
-0.0375000017811544
 23
-0.0530000025173649
 33
0.0300000014249235
0
3DFACE
8
8
 62
8
 10
-0.0530000025173649
 20
-0.0530000025173649
 30
0
 11
-0.0530000025173649
 21
-0.0275000013061799
 31
0
 12
-0.0530000025173649
 22
-0.0275000013061799
 32
0.0300000014249235
 13
-0.0530000025173649
 23
-0.0530000025173649
 33
0.0300000014249235
0
3DFACE
8
8
 62
8
 10
-0.0530000025173649
 20
-0.0275000013061799
 30
0
 11
-0.0610000028973445
 21
-0.0275000013061799
 31
0
 12
-0.0610000028973445
 22
-0.0275000013061799
 32
0.0300000014249235
 13
-0.0530000025173649
 23
-0.0275000013061799
 33
0.0300000014249235
0
3DFACE
8
8
 62
8
 10
-0.0610000028973445
 20
-0.0275000013061799
 30
0
 11
-0.0610000028973445
 21
0.0275000013061799
 31
0
 12
-0.0610000028973445
 22
0.0275000013061799
 32
0.0300000014249235
 13
-0.0610000028973445
 23
-0.0275000013061799
 33
0.0300000014249235
0
3DFACE
8
8
 62
8
 10
-0.0610000028973445
 20
0.0275000013061799
 30
0
 11
-0.0530000025173649
 21
0.0275000013061799
 31
0
 12
-0.0530000025173649
 22
0.0275000013061799
 32
0.0300000014249235
 13
-0.0610000028973445
 23
0.0275000013061799
 33
0.0300000014249235
0
3DFACE
8
8
 62
8
 10
-0.0530000025173649
 20
0.0275000013061799
 30
0
 11
-0.0530000025173649
 21
0.0530000025173649
 31
0
 12
-0.0530000025173649
 22
0.0530000025173649
 32
0.0300000014249235
 13
-0.0530000025173649
 23
0.0275000013061799
 33
0.0300000014249235
0
3DFACE
8
8
 62
8
 10
-0.0530000025173649
 20
0.0530000025173649
 30
0
 11
-0.0375000017811544
 21
0.0530000025173649
 31
0
 12
-0.0375000017811544
 22
0.0530000025173649
 32
0.0300000014249235
 13
-0.0530000025173649
 23
0.0530000025173649
 33
0.0300000014249235
0
3DFACE
8
8
 62
8
 10
-0.0375000017811544
 20
0.0530000025173649
 30
0
 11
-0.0375000017811544
 21
0.0610000028973445
 31
0
 12
-0.0375000017811544
 22
0.0610000028973445
 32
0.0300000014249235
 13
-0.0375000017811544
 23
0.0530000025173649
 33
0.0300000014249235
0
3DFACE
8
8
 62
8
 10
-0.0375000017811544
 20
0.0610000028973445
 30
0
 11
0.0375000017811544
 21
0.0610000028973445
 31
0
 12
0.0375000017811544
 22
0.0610000028973445
 32
0.0300000014249235
 13
-0.0375000017811544
 23
0.0610000028973445
 33
0.0300000014249235
0
3DFACE
8
8
 62
8
 10
0.0375000017811544
 20
0.0610000028973445
 30
0
 11
0.0375000017811544
 21
0.0530000025173649
 31
0
 12
0.0375000017811544
 22
0.0530000025173649
 32
0.0300000014249235
 13
0.0375000017811544
 23
0.0610000028973445
 33
0.0300000014249235
0
3DFACE
8
8
 62
8
 10
0.0375000017811544
 20
0.0530000025173649
 30
0
 11
0.0530000025173649
 21
0.0530000025173649
 31
0
 12
0.0530000025173649
 22
0.0530000025173649
 32
0.0300000014249235
 13
0.0375000017811544
 23
0.0530000025173649
 33
0.0300000014249235
0
3DFACE
8
8
 62
8
 10
0.0530000025173649
 20
0.0530000025173649
 30
0
 11
0.0530000025173649
 21
0.0275000013061799
 31
0
 12
0.0530000025173649
 22
0.0275000013061799
 32
0.0300000014249235
 13
0.0530000025173649
 23
0.0530000025173649
 33
0.0300000014249235
0
3DFACE
8
8
 62
8
 10
0.0530000025173649
 20
0.0275000013061799
 30
0
 11
0.0610000028973445
 21
0.0275000013061799
 31
0
 12
0.0610000028973445
 22
0.0275000013061799
 32
0.0300000014249235
 13
0.0530000025173649
 23
0.0275000013061799
 33
0.0300000014249235
0
3DFACE
8
8
 62
8
 10
0.0610000028973445
 20
0.0275000013061799
 30
0
 11
0.0610000028973445
 21
-0.0275000013061799
 31
0
 12
0.0610000028973445
 22
-0.0275000013061799
 32
0.0300000014249235
 13
0.0610000028973445
 23
0.0275000013061799
 33
0.0300000014249235
0
3DFACE
8
8
 62
8
 10
0.0610000028973445
 20
-0.0275000013061799
 30
0
 11
0.0530000025173649
 21
-0.0275000013061799
 31
0
 12
0.0530000025173649
 22
-0.0275000013061799
 32
0.0300000014249235
 13
0.0610000028973445
 23
-0.0275000013061799
 33
0.0300000014249235
0
3DFACE
8
8
 62
8
 10
0.0530000025173649
 20
-0.0275000013061799
 30
0
 11
0.0530000025173649
 21
-0.0530000025173649
 31
0
 12
0.0530000025173649
 22
-0.0530000025173649
 32
0.0300000014249235
 13
0.0530000025173649
 23
-0.0275000013061799
 33
0.0300000014249235
0
3DFACE
8
8
 62
8
 10
0.0530000025173649
 20
-0.0530000025173649
 30
0
 11
0.0375000017811544
 21
-0.0530000025173649
 31
0
 12
0.0375000017811544
 22
-0.0530000025173649
 32
0.0300000014249235
 13
0.0530000025173649
 23
-0.0530000025173649
 33
0.0300000014249235
0
3DFACE
8
8
 62
8
 10
0.0375000017811544
 20
-0.0530000025173649
 30
0
 11
0.0375000017811544
 21
-0.0610000028973445
 31
0
 12
0.0375000017811544
 22
-0.0610000028973445
 32
0.0300000014249235
 13
0.0375000017811544
 23
-0.0530000025173649
 33
0.0300000014249235
0
3DFACE
8
8
 62
8
 10
0.0375000017811544
 20
-0.0610000028973445
 30
0
 11
-0.0375000017811544
 21
-0.0610000028973445
 31
0
 12
-0.0375000017811544
 22
-0.0610000028973445
 32
0.0300000014249235
 13
0.0375000017811544
 23
-0.0610000028973445
 33
0.0300000014249235
0
3DFACE
8
8
 62
8
 10
-0.0375000017811544
 20
-0.0610000028973445
 30
0
 11
-0.0375000017811544
 21
-0.0530000025173649
 31
0
 12
-0.0375000017811544
 22
-0.0530000025173649
 32
0.0300000014249235
 13
-0.0375000017811544
 23
-0.0610000028973445
 33
0.0300000014249235
 0
ENDBLK
 0
BLOCK
 70
0
 2
TOP_VALOR_Polygon_83
 10
0
 20
0
 30
0
0
3DFACE
8
23
 62
23
 10
-0.082000003894791
 20
-0.082000003894791
 30
0
 11
-0.082000003894791
 21
0.082000003894791
 31
0
 12
0.082000003894791
 22
0.082000003894791
 32
0
 13
0.082000003894791
 23
-0.082000003894791
 33
0
0
3DFACE
8
23
 62
23
 10
-0.082000003894791
 20
-0.082000003894791
 30
0.0300000014249235
 11
-0.082000003894791
 21
0.082000003894791
 31
0.0300000014249235
 12
0.082000003894791
 22
0.082000003894791
 32
0.0300000014249235
 13
0.082000003894791
 23
-0.082000003894791
 33
0.0300000014249235
0
3DFACE
8
23
 62
23
 10
0.082000003894791
 20
-0.082000003894791
 30
0
 11
-0.082000003894791
 21
-0.082000003894791
 31
0
 12
-0.082000003894791
 22
-0.082000003894791
 32
0.0300000014249235
 13
0.082000003894791
 23
-0.082000003894791
 33
0.0300000014249235
0
3DFACE
8
23
 62
23
 10
-0.082000003894791
 20
-0.082000003894791
 30
0
 11
-0.082000003894791
 21
0.082000003894791
 31
0
 12
-0.082000003894791
 22
0.082000003894791
 32
0.0300000014249235
 13
-0.082000003894791
 23
-0.082000003894791
 33
0.0300000014249235
0
3DFACE
8
23
 62
23
 10
-0.082000003894791
 20
0.082000003894791
 30
0
 11
0.082000003894791
 21
0.082000003894791
 31
0
 12
0.082000003894791
 22
0.082000003894791
 32
0.0300000014249235
 13
-0.082000003894791
 23
0.082000003894791
 33
0.0300000014249235
0
3DFACE
8
23
 62
23
 10
0.082000003894791
 20
0.082000003894791
 30
0
 11
0.082000003894791
 21
-0.082000003894791
 31
0
 12
0.082000003894791
 22
-0.082000003894791
 32
0.0300000014249235
 13
0.082000003894791
 23
0.082000003894791
 33
0.0300000014249235
 0
ENDBLK
0
ENDSEC
0
SECTION
2
ENTITIES
 0
INSERT
 8
2
 2
TOP_SILKSCREEN_Polygon_8
 10
0
 20
0
 30
0
 41
1
 42
1
 43
1
 0
INSERT
 8
8
 2
TOP_PLACE_BOUND_Polygon_51
 10
0
 20
0
 30
0
 41
1
 42
1
 43
1
 0
INSERT
 8
23
 2
TOP_VALOR_Polygon_83
 10
0
 20
0
 30
0
 41
1
 42
1
 43
1
0
ENDSEC
 0
EOF

