 999
VISION3D DXF
0
SECTION
2
HEADER
0
ENDSEC
0
SECTION
2
TABLES
0
ENDSEC
0
SECTION
2
BLOCKS
 0
BLOCK
 70
0
 2
TOP_SILKSCREEN_Polygon_8
 10
0
 20
0
 30
0
0
3DFACE
8
2
 62
2
 10
0.0810000038472936
 20
0.0275000013061799
 30
0
 11
0.0810000038472936
 21
0.0125000005937181
 31
0
 12
0.071000003372319
 22
0.0125000005937181
 32
0
 13
0.071000003372319
 23
0.0275000013061799
 33
0
0
3DFACE
8
2
 62
2
 10
0.0810000038472936
 20
0.0275000013061799
 30
0.0300000014249235
 11
0.0810000038472936
 21
0.0125000005937181
 31
0.0300000014249235
 12
0.071000003372319
 22
0.0125000005937181
 32
0.0300000014249235
 13
0.071000003372319
 23
0.0275000013061799
 33
0.0300000014249235
0
3DFACE
8
2
 62
2
 10
0.071000003372319
 20
0.0275000013061799
 30
0
 11
0.0810000038472936
 21
0.0275000013061799
 31
0
 12
0.0810000038472936
 22
0.0275000013061799
 32
0.0300000014249235
 13
0.071000003372319
 23
0.0275000013061799
 33
0.0300000014249235
0
3DFACE
8
2
 62
2
 10
0.0810000038472936
 20
0.0275000013061799
 30
0
 11
0.0810000038472936
 21
0.0125000005937181
 31
0
 12
0.0810000038472936
 22
0.0125000005937181
 32
0.0300000014249235
 13
0.0810000038472936
 23
0.0275000013061799
 33
0.0300000014249235
0
3DFACE
8
2
 62
2
 10
0.0810000038472936
 20
0.0125000005937181
 30
0
 11
0.071000003372319
 21
0.0125000005937181
 31
0
 12
0.071000003372319
 22
0.0125000005937181
 32
0.0300000014249235
 13
0.0810000038472936
 23
0.0125000005937181
 33
0.0300000014249235
0
3DFACE
8
2
 62
2
 10
0.071000003372319
 20
0.0125000005937181
 30
0
 11
0.071000003372319
 21
0.0275000013061799
 31
0
 12
0.071000003372319
 22
0.0275000013061799
 32
0.0300000014249235
 13
0.071000003372319
 23
0.0125000005937181
 33
0.0300000014249235
 0
ENDBLK
 0
BLOCK
 70
0
 2
TOP_PLACE_BOUND_Polygon_51
 10
0
 20
0
 30
0
0
3DFACE
8
8
 62
8
 10
-0.0590000028023496
 20
-0.0590000028023496
 30
0
 11
-0.0590000028023496
 21
-0.0335000015911646
 31
0
 12
-0.0435000020661391
 22
0.0590000028023496
 32
0
 13
-0.0435000020661391
 23
0.0590000028023496
 33
0
0
3DFACE
8
8
 62
8
 10
-0.0590000028023496
 20
-0.0335000015911646
 30
0
 11
-0.071000003372319
 21
-0.0335000015911646
 31
0
 12
-0.071000003372319
 22
0.0335000015911646
 32
0
 13
-0.071000003372319
 23
0.0335000015911646
 33
0
0
3DFACE
8
8
 62
8
 10
-0.0590000028023496
 20
-0.0335000015911646
 30
0
 11
-0.071000003372319
 21
0.0335000015911646
 31
0
 12
-0.0590000028023496
 22
0.0335000015911646
 32
0
 13
-0.0590000028023496
 23
0.0335000015911646
 33
0
0
3DFACE
8
8
 62
8
 10
-0.0590000028023496
 20
-0.0335000015911646
 30
0
 11
-0.0590000028023496
 21
0.0335000015911646
 31
0
 12
-0.0435000020661391
 22
0.0590000028023496
 32
0
 13
-0.0435000020661391
 23
0.0590000028023496
 33
0
0
3DFACE
8
8
 62
8
 10
-0.0590000028023496
 20
0.0335000015911646
 30
0
 11
-0.0590000028023496
 21
0.0590000028023496
 31
0
 12
-0.0435000020661391
 22
0.0590000028023496
 32
0
 13
-0.0435000020661391
 23
0.0590000028023496
 33
0
0
3DFACE
8
8
 62
8
 10
-0.0590000028023496
 20
-0.0590000028023496
 30
0
 11
-0.0435000020661391
 21
0.0590000028023496
 31
0
 12
0.0435000020661391
 22
0.071000003372319
 32
0
 13
0.0435000020661391
 23
0.071000003372319
 33
0
0
3DFACE
8
8
 62
8
 10
-0.0435000020661391
 20
0.0590000028023496
 30
0
 11
-0.0435000020661391
 21
0.071000003372319
 31
0
 12
0.0435000020661391
 22
0.071000003372319
 32
0
 13
0.0435000020661391
 23
0.071000003372319
 33
0
0
3DFACE
8
8
 62
8
 10
-0.0590000028023496
 20
-0.0590000028023496
 30
0
 11
0.0435000020661391
 21
0.071000003372319
 31
0
 12
0.0435000020661391
 22
0.0590000028023496
 32
0
 13
0.0435000020661391
 23
0.0590000028023496
 33
0
0
3DFACE
8
8
 62
8
 10
-0.0590000028023496
 20
-0.0590000028023496
 30
0
 11
0.0435000020661391
 21
0.0590000028023496
 31
0
 12
0.0590000028023496
 22
0.0590000028023496
 32
0
 13
0.0590000028023496
 23
0.0590000028023496
 33
0
0
3DFACE
8
8
 62
8
 10
-0.0590000028023496
 20
-0.0590000028023496
 30
0
 11
0.0590000028023496
 21
0.0590000028023496
 31
0
 12
0.0590000028023496
 22
0.0335000015911646
 32
0
 13
0.0590000028023496
 23
0.0335000015911646
 33
0
0
3DFACE
8
8
 62
8
 10
-0.0590000028023496
 20
-0.0590000028023496
 30
0
 11
0.0590000028023496
 21
0.0335000015911646
 31
0
 12
0.071000003372319
 22
0.0335000015911646
 32
0
 13
0.071000003372319
 23
0.0335000015911646
 33
0
0
3DFACE
8
8
 62
8
 10
-0.0590000028023496
 20
-0.0590000028023496
 30
0
 11
0.071000003372319
 21
0.0335000015911646
 31
0
 12
0.0590000028023496
 22
-0.0335000015911646
 32
0
 13
0.0590000028023496
 23
-0.0335000015911646
 33
0
0
3DFACE
8
8
 62
8
 10
0.071000003372319
 20
0.0335000015911646
 30
0
 11
0.071000003372319
 21
-0.0335000015911646
 31
0
 12
0.0590000028023496
 22
-0.0335000015911646
 32
0
 13
0.0590000028023496
 23
-0.0335000015911646
 33
0
0
3DFACE
8
8
 62
8
 10
-0.0590000028023496
 20
-0.0590000028023496
 30
0
 11
0.0590000028023496
 21
-0.0335000015911646
 31
0
 12
-0.0435000020661391
 22
-0.0590000028023496
 32
0
 13
-0.0435000020661391
 23
-0.0590000028023496
 33
0
0
3DFACE
8
8
 62
8
 10
0.0590000028023496
 20
-0.0335000015911646
 30
0
 11
0.0590000028023496
 21
-0.0590000028023496
 31
0
 12
0.0435000020661391
 22
-0.0590000028023496
 32
0
 13
0.0435000020661391
 23
-0.0590000028023496
 33
0
0
3DFACE
8
8
 62
8
 10
0.0590000028023496
 20
-0.0335000015911646
 30
0
 11
0.0435000020661391
 21
-0.0590000028023496
 31
0
 12
-0.0435000020661391
 22
-0.071000003372319
 32
0
 13
-0.0435000020661391
 23
-0.071000003372319
 33
0
0
3DFACE
8
8
 62
8
 10
0.0435000020661391
 20
-0.0590000028023496
 30
0
 11
0.0435000020661391
 21
-0.071000003372319
 31
0
 12
-0.0435000020661391
 22
-0.071000003372319
 32
0
 13
-0.0435000020661391
 23
-0.071000003372319
 33
0
0
3DFACE
8
8
 62
8
 10
0.0590000028023496
 20
-0.0335000015911646
 30
0
 11
-0.0435000020661391
 21
-0.071000003372319
 31
0
 12
-0.0435000020661391
 22
-0.0590000028023496
 32
0
 13
-0.0435000020661391
 23
-0.0590000028023496
 33
0
0
3DFACE
8
8
 62
8
 10
-0.0590000028023496
 20
-0.0590000028023496
 30
0.0300000014249235
 11
-0.0590000028023496
 21
-0.0335000015911646
 31
0.0300000014249235
 12
-0.0435000020661391
 22
0.0590000028023496
 32
0.0300000014249235
 13
-0.0435000020661391
 23
0.0590000028023496
 33
0.0300000014249235
0
3DFACE
8
8
 62
8
 10
-0.0590000028023496
 20
-0.0335000015911646
 30
0.0300000014249235
 11
-0.071000003372319
 21
-0.0335000015911646
 31
0.0300000014249235
 12
-0.071000003372319
 22
0.0335000015911646
 32
0.0300000014249235
 13
-0.071000003372319
 23
0.0335000015911646
 33
0.0300000014249235
0
3DFACE
8
8
 62
8
 10
-0.0590000028023496
 20
-0.0335000015911646
 30
0.0300000014249235
 11
-0.071000003372319
 21
0.0335000015911646
 31
0.0300000014249235
 12
-0.0590000028023496
 22
0.0335000015911646
 32
0.0300000014249235
 13
-0.0590000028023496
 23
0.0335000015911646
 33
0.0300000014249235
0
3DFACE
8
8
 62
8
 10
-0.0590000028023496
 20
-0.0335000015911646
 30
0.0300000014249235
 11
-0.0590000028023496
 21
0.0335000015911646
 31
0.0300000014249235
 12
-0.0435000020661391
 22
0.0590000028023496
 32
0.0300000014249235
 13
-0.0435000020661391
 23
0.0590000028023496
 33
0.0300000014249235
0
3DFACE
8
8
 62
8
 10
-0.0590000028023496
 20
0.0335000015911646
 30
0.0300000014249235
 11
-0.0590000028023496
 21
0.0590000028023496
 31
0.0300000014249235
 12
-0.0435000020661391
 22
0.0590000028023496
 32
0.0300000014249235
 13
-0.0435000020661391
 23
0.0590000028023496
 33
0.0300000014249235
0
3DFACE
8
8
 62
8
 10
-0.0590000028023496
 20
-0.0590000028023496
 30
0.0300000014249235
 11
-0.0435000020661391
 21
0.0590000028023496
 31
0.0300000014249235
 12
0.0435000020661391
 22
0.071000003372319
 32
0.0300000014249235
 13
0.0435000020661391
 23
0.071000003372319
 33
0.0300000014249235
0
3DFACE
8
8
 62
8
 10
-0.0435000020661391
 20
0.0590000028023496
 30
0.0300000014249235
 11
-0.0435000020661391
 21
0.071000003372319
 31
0.0300000014249235
 12
0.0435000020661391
 22
0.071000003372319
 32
0.0300000014249235
 13
0.0435000020661391
 23
0.071000003372319
 33
0.0300000014249235
0
3DFACE
8
8
 62
8
 10
-0.0590000028023496
 20
-0.0590000028023496
 30
0.0300000014249235
 11
0.0435000020661391
 21
0.071000003372319
 31
0.0300000014249235
 12
0.0435000020661391
 22
0.0590000028023496
 32
0.0300000014249235
 13
0.0435000020661391
 23
0.0590000028023496
 33
0.0300000014249235
0
3DFACE
8
8
 62
8
 10
-0.0590000028023496
 20
-0.0590000028023496
 30
0.0300000014249235
 11
0.0435000020661391
 21
0.0590000028023496
 31
0.0300000014249235
 12
0.0590000028023496
 22
0.0590000028023496
 32
0.0300000014249235
 13
0.0590000028023496
 23
0.0590000028023496
 33
0.0300000014249235
0
3DFACE
8
8
 62
8
 10
-0.0590000028023496
 20
-0.0590000028023496
 30
0.0300000014249235
 11
0.0590000028023496
 21
0.0590000028023496
 31
0.0300000014249235
 12
0.0590000028023496
 22
0.0335000015911646
 32
0.0300000014249235
 13
0.0590000028023496
 23
0.0335000015911646
 33
0.0300000014249235
0
3DFACE
8
8
 62
8
 10
-0.0590000028023496
 20
-0.0590000028023496
 30
0.0300000014249235
 11
0.0590000028023496
 21
0.0335000015911646
 31
0.0300000014249235
 12
0.071000003372319
 22
0.0335000015911646
 32
0.0300000014249235
 13
0.071000003372319
 23
0.0335000015911646
 33
0.0300000014249235
0
3DFACE
8
8
 62
8
 10
-0.0590000028023496
 20
-0.0590000028023496
 30
0.0300000014249235
 11
0.071000003372319
 21
0.0335000015911646
 31
0.0300000014249235
 12
0.0590000028023496
 22
-0.0335000015911646
 32
0.0300000014249235
 13
0.0590000028023496
 23
-0.0335000015911646
 33
0.0300000014249235
0
3DFACE
8
8
 62
8
 10
0.071000003372319
 20
0.0335000015911646
 30
0.0300000014249235
 11
0.071000003372319
 21
-0.0335000015911646
 31
0.0300000014249235
 12
0.0590000028023496
 22
-0.0335000015911646
 32
0.0300000014249235
 13
0.0590000028023496
 23
-0.0335000015911646
 33
0.0300000014249235
0
3DFACE
8
8
 62
8
 10
-0.0590000028023496
 20
-0.0590000028023496
 30
0.0300000014249235
 11
0.0590000028023496
 21
-0.0335000015911646
 31
0.0300000014249235
 12
-0.0435000020661391
 22
-0.0590000028023496
 32
0.0300000014249235
 13
-0.0435000020661391
 23
-0.0590000028023496
 33
0.0300000014249235
0
3DFACE
8
8
 62
8
 10
0.0590000028023496
 20
-0.0335000015911646
 30
0.0300000014249235
 11
0.0590000028023496
 21
-0.0590000028023496
 31
0.0300000014249235
 12
0.0435000020661391
 22
-0.0590000028023496
 32
0.0300000014249235
 13
0.0435000020661391
 23
-0.0590000028023496
 33
0.0300000014249235
0
3DFACE
8
8
 62
8
 10
0.0590000028023496
 20
-0.0335000015911646
 30
0.0300000014249235
 11
0.0435000020661391
 21
-0.0590000028023496
 31
0.0300000014249235
 12
-0.0435000020661391
 22
-0.071000003372319
 32
0.0300000014249235
 13
-0.0435000020661391
 23
-0.071000003372319
 33
0.0300000014249235
0
3DFACE
8
8
 62
8
 10
0.0435000020661391
 20
-0.0590000028023496
 30
0.0300000014249235
 11
0.0435000020661391
 21
-0.071000003372319
 31
0.0300000014249235
 12
-0.0435000020661391
 22
-0.071000003372319
 32
0.0300000014249235
 13
-0.0435000020661391
 23
-0.071000003372319
 33
0.0300000014249235
0
3DFACE
8
8
 62
8
 10
0.0590000028023496
 20
-0.0335000015911646
 30
0.0300000014249235
 11
-0.0435000020661391
 21
-0.071000003372319
 31
0.0300000014249235
 12
-0.0435000020661391
 22
-0.0590000028023496
 32
0.0300000014249235
 13
-0.0435000020661391
 23
-0.0590000028023496
 33
0.0300000014249235
0
3DFACE
8
8
 62
8
 10
-0.0435000020661391
 20
-0.0590000028023496
 30
0
 11
-0.0590000028023496
 21
-0.0590000028023496
 31
0
 12
-0.0590000028023496
 22
-0.0590000028023496
 32
0.0300000014249235
 13
-0.0435000020661391
 23
-0.0590000028023496
 33
0.0300000014249235
0
3DFACE
8
8
 62
8
 10
-0.0590000028023496
 20
-0.0590000028023496
 30
0
 11
-0.0590000028023496
 21
-0.0335000015911646
 31
0
 12
-0.0590000028023496
 22
-0.0335000015911646
 32
0.0300000014249235
 13
-0.0590000028023496
 23
-0.0590000028023496
 33
0.0300000014249235
0
3DFACE
8
8
 62
8
 10
-0.0590000028023496
 20
-0.0335000015911646
 30
0
 11
-0.071000003372319
 21
-0.0335000015911646
 31
0
 12
-0.071000003372319
 22
-0.0335000015911646
 32
0.0300000014249235
 13
-0.0590000028023496
 23
-0.0335000015911646
 33
0.0300000014249235
0
3DFACE
8
8
 62
8
 10
-0.071000003372319
 20
-0.0335000015911646
 30
0
 11
-0.071000003372319
 21
0.0335000015911646
 31
0
 12
-0.071000003372319
 22
0.0335000015911646
 32
0.0300000014249235
 13
-0.071000003372319
 23
-0.0335000015911646
 33
0.0300000014249235
0
3DFACE
8
8
 62
8
 10
-0.071000003372319
 20
0.0335000015911646
 30
0
 11
-0.0590000028023496
 21
0.0335000015911646
 31
0
 12
-0.0590000028023496
 22
0.0335000015911646
 32
0.0300000014249235
 13
-0.071000003372319
 23
0.0335000015911646
 33
0.0300000014249235
0
3DFACE
8
8
 62
8
 10
-0.0590000028023496
 20
0.0335000015911646
 30
0
 11
-0.0590000028023496
 21
0.0590000028023496
 31
0
 12
-0.0590000028023496
 22
0.0590000028023496
 32
0.0300000014249235
 13
-0.0590000028023496
 23
0.0335000015911646
 33
0.0300000014249235
0
3DFACE
8
8
 62
8
 10
-0.0590000028023496
 20
0.0590000028023496
 30
0
 11
-0.0435000020661391
 21
0.0590000028023496
 31
0
 12
-0.0435000020661391
 22
0.0590000028023496
 32
0.0300000014249235
 13
-0.0590000028023496
 23
0.0590000028023496
 33
0.0300000014249235
0
3DFACE
8
8
 62
8
 10
-0.0435000020661391
 20
0.0590000028023496
 30
0
 11
-0.0435000020661391
 21
0.071000003372319
 31
0
 12
-0.0435000020661391
 22
0.071000003372319
 32
0.0300000014249235
 13
-0.0435000020661391
 23
0.0590000028023496
 33
0.0300000014249235
0
3DFACE
8
8
 62
8
 10
-0.0435000020661391
 20
0.071000003372319
 30
0
 11
0.0435000020661391
 21
0.071000003372319
 31
0
 12
0.0435000020661391
 22
0.071000003372319
 32
0.0300000014249235
 13
-0.0435000020661391
 23
0.071000003372319
 33
0.0300000014249235
0
3DFACE
8
8
 62
8
 10
0.0435000020661391
 20
0.071000003372319
 30
0
 11
0.0435000020661391
 21
0.0590000028023496
 31
0
 12
0.0435000020661391
 22
0.0590000028023496
 32
0.0300000014249235
 13
0.0435000020661391
 23
0.071000003372319
 33
0.0300000014249235
0
3DFACE
8
8
 62
8
 10
0.0435000020661391
 20
0.0590000028023496
 30
0
 11
0.0590000028023496
 21
0.0590000028023496
 31
0
 12
0.0590000028023496
 22
0.0590000028023496
 32
0.0300000014249235
 13
0.0435000020661391
 23
0.0590000028023496
 33
0.0300000014249235
0
3DFACE
8
8
 62
8
 10
0.0590000028023496
 20
0.0590000028023496
 30
0
 11
0.0590000028023496
 21
0.0335000015911646
 31
0
 12
0.0590000028023496
 22
0.0335000015911646
 32
0.0300000014249235
 13
0.0590000028023496
 23
0.0590000028023496
 33
0.0300000014249235
0
3DFACE
8
8
 62
8
 10
0.0590000028023496
 20
0.0335000015911646
 30
0
 11
0.071000003372319
 21
0.0335000015911646
 31
0
 12
0.071000003372319
 22
0.0335000015911646
 32
0.0300000014249235
 13
0.0590000028023496
 23
0.0335000015911646
 33
0.0300000014249235
0
3DFACE
8
8
 62
8
 10
0.071000003372319
 20
0.0335000015911646
 30
0
 11
0.071000003372319
 21
-0.0335000015911646
 31
0
 12
0.071000003372319
 22
-0.0335000015911646
 32
0.0300000014249235
 13
0.071000003372319
 23
0.0335000015911646
 33
0.0300000014249235
0
3DFACE
8
8
 62
8
 10
0.071000003372319
 20
-0.0335000015911646
 30
0
 11
0.0590000028023496
 21
-0.0335000015911646
 31
0
 12
0.0590000028023496
 22
-0.0335000015911646
 32
0.0300000014249235
 13
0.071000003372319
 23
-0.0335000015911646
 33
0.0300000014249235
0
3DFACE
8
8
 62
8
 10
0.0590000028023496
 20
-0.0335000015911646
 30
0
 11
0.0590000028023496
 21
-0.0590000028023496
 31
0
 12
0.0590000028023496
 22
-0.0590000028023496
 32
0.0300000014249235
 13
0.0590000028023496
 23
-0.0335000015911646
 33
0.0300000014249235
0
3DFACE
8
8
 62
8
 10
0.0590000028023496
 20
-0.0590000028023496
 30
0
 11
0.0435000020661391
 21
-0.0590000028023496
 31
0
 12
0.0435000020661391
 22
-0.0590000028023496
 32
0.0300000014249235
 13
0.0590000028023496
 23
-0.0590000028023496
 33
0.0300000014249235
0
3DFACE
8
8
 62
8
 10
0.0435000020661391
 20
-0.0590000028023496
 30
0
 11
0.0435000020661391
 21
-0.071000003372319
 31
0
 12
0.0435000020661391
 22
-0.071000003372319
 32
0.0300000014249235
 13
0.0435000020661391
 23
-0.0590000028023496
 33
0.0300000014249235
0
3DFACE
8
8
 62
8
 10
0.0435000020661391
 20
-0.071000003372319
 30
0
 11
-0.0435000020661391
 21
-0.071000003372319
 31
0
 12
-0.0435000020661391
 22
-0.071000003372319
 32
0.0300000014249235
 13
0.0435000020661391
 23
-0.071000003372319
 33
0.0300000014249235
0
3DFACE
8
8
 62
8
 10
-0.0435000020661391
 20
-0.071000003372319
 30
0
 11
-0.0435000020661391
 21
-0.0590000028023496
 31
0
 12
-0.0435000020661391
 22
-0.0590000028023496
 32
0.0300000014249235
 13
-0.0435000020661391
 23
-0.071000003372319
 33
0.0300000014249235
 0
ENDBLK
 0
BLOCK
 70
0
 2
TOP_VALOR_Polygon_83
 10
0
 20
0
 30
0
0
3DFACE
8
23
 62
23
 10
-0.0860000040847808
 20
-0.0860000040847808
 30
0
 11
-0.0860000040847808
 21
0.0860000040847808
 31
0
 12
0.0860000040847808
 22
0.0860000040847808
 32
0
 13
0.0860000040847808
 23
-0.0860000040847808
 33
0
0
3DFACE
8
23
 62
23
 10
-0.0860000040847808
 20
-0.0860000040847808
 30
0.0300000014249235
 11
-0.0860000040847808
 21
0.0860000040847808
 31
0.0300000014249235
 12
0.0860000040847808
 22
0.0860000040847808
 32
0.0300000014249235
 13
0.0860000040847808
 23
-0.0860000040847808
 33
0.0300000014249235
0
3DFACE
8
23
 62
23
 10
0.0860000040847808
 20
-0.0860000040847808
 30
0
 11
-0.0860000040847808
 21
-0.0860000040847808
 31
0
 12
-0.0860000040847808
 22
-0.0860000040847808
 32
0.0300000014249235
 13
0.0860000040847808
 23
-0.0860000040847808
 33
0.0300000014249235
0
3DFACE
8
23
 62
23
 10
-0.0860000040847808
 20
-0.0860000040847808
 30
0
 11
-0.0860000040847808
 21
0.0860000040847808
 31
0
 12
-0.0860000040847808
 22
0.0860000040847808
 32
0.0300000014249235
 13
-0.0860000040847808
 23
-0.0860000040847808
 33
0.0300000014249235
0
3DFACE
8
23
 62
23
 10
-0.0860000040847808
 20
0.0860000040847808
 30
0
 11
0.0860000040847808
 21
0.0860000040847808
 31
0
 12
0.0860000040847808
 22
0.0860000040847808
 32
0.0300000014249235
 13
-0.0860000040847808
 23
0.0860000040847808
 33
0.0300000014249235
0
3DFACE
8
23
 62
23
 10
0.0860000040847808
 20
0.0860000040847808
 30
0
 11
0.0860000040847808
 21
-0.0860000040847808
 31
0
 12
0.0860000040847808
 22
-0.0860000040847808
 32
0.0300000014249235
 13
0.0860000040847808
 23
0.0860000040847808
 33
0.0300000014249235
 0
ENDBLK
0
ENDSEC
0
SECTION
2
ENTITIES
 0
INSERT
 8
2
 2
TOP_SILKSCREEN_Polygon_8
 10
0
 20
0
 30
0
 41
1
 42
1
 43
1
 0
INSERT
 8
8
 2
TOP_PLACE_BOUND_Polygon_51
 10
0
 20
0
 30
0
 41
1
 42
1
 43
1
 0
INSERT
 8
23
 2
TOP_VALOR_Polygon_83
 10
0
 20
0
 30
0
 41
1
 42
1
 43
1
0
ENDSEC
 0
EOF

