 999
VISION3D DXF
0
SECTION
2
HEADER
0
ENDSEC
0
SECTION
2
TABLES
0
ENDSEC
0
SECTION
2
BLOCKS
 0
BLOCK
 70
0
 2
TOP_SILKSCREEN_Polygon_8
 10
0
 20
0
 30
0
0
3DFACE
8
2
 62
2
 10
0.0850000040372834
 20
0.0275000013061799
 30
0
 11
0.0850000040372834
 21
0.0125000005937181
 31
0
 12
0.0750000035623088
 22
0.0125000005937181
 32
0
 13
0.0750000035623088
 23
0.0275000013061799
 33
0
0
3DFACE
8
2
 62
2
 10
0.0850000040372834
 20
0.0275000013061799
 30
0.0300000014249235
 11
0.0850000040372834
 21
0.0125000005937181
 31
0.0300000014249235
 12
0.0750000035623088
 22
0.0125000005937181
 32
0.0300000014249235
 13
0.0750000035623088
 23
0.0275000013061799
 33
0.0300000014249235
0
3DFACE
8
2
 62
2
 10
0.0750000035623088
 20
0.0275000013061799
 30
0
 11
0.0850000040372834
 21
0.0275000013061799
 31
0
 12
0.0850000040372834
 22
0.0275000013061799
 32
0.0300000014249235
 13
0.0750000035623088
 23
0.0275000013061799
 33
0.0300000014249235
0
3DFACE
8
2
 62
2
 10
0.0850000040372834
 20
0.0275000013061799
 30
0
 11
0.0850000040372834
 21
0.0125000005937181
 31
0
 12
0.0850000040372834
 22
0.0125000005937181
 32
0.0300000014249235
 13
0.0850000040372834
 23
0.0275000013061799
 33
0.0300000014249235
0
3DFACE
8
2
 62
2
 10
0.0850000040372834
 20
0.0125000005937181
 30
0
 11
0.0750000035623088
 21
0.0125000005937181
 31
0
 12
0.0750000035623088
 22
0.0125000005937181
 32
0.0300000014249235
 13
0.0850000040372834
 23
0.0125000005937181
 33
0.0300000014249235
0
3DFACE
8
2
 62
2
 10
0.0750000035623088
 20
0.0125000005937181
 30
0
 11
0.0750000035623088
 21
0.0275000013061799
 31
0
 12
0.0750000035623088
 22
0.0275000013061799
 32
0.0300000014249235
 13
0.0750000035623088
 23
0.0125000005937181
 33
0.0300000014249235
 0
ENDBLK
 0
BLOCK
 70
0
 2
TOP_PLACE_BOUND_Polygon_51
 10
0
 20
0
 30
0
0
3DFACE
8
8
 62
8
 10
-0.0690000032773241
 20
-0.0690000032773241
 30
0
 11
-0.0690000032773241
 21
-0.0435000020661391
 31
0
 12
-0.0535000025411136
 22
0.0690000032773241
 32
0
 13
-0.0535000025411136
 23
0.0690000032773241
 33
0
0
3DFACE
8
8
 62
8
 10
-0.0690000032773241
 20
-0.0435000020661391
 30
0
 11
-0.0850000040372834
 21
-0.0435000020661391
 31
0
 12
-0.0850000040372834
 22
0.0435000020661391
 32
0
 13
-0.0850000040372834
 23
0.0435000020661391
 33
0
0
3DFACE
8
8
 62
8
 10
-0.0690000032773241
 20
-0.0435000020661391
 30
0
 11
-0.0850000040372834
 21
0.0435000020661391
 31
0
 12
-0.0690000032773241
 22
0.0435000020661391
 32
0
 13
-0.0690000032773241
 23
0.0435000020661391
 33
0
0
3DFACE
8
8
 62
8
 10
-0.0690000032773241
 20
-0.0435000020661391
 30
0
 11
-0.0690000032773241
 21
0.0435000020661391
 31
0
 12
-0.0535000025411136
 22
0.0690000032773241
 32
0
 13
-0.0535000025411136
 23
0.0690000032773241
 33
0
0
3DFACE
8
8
 62
8
 10
-0.0690000032773241
 20
0.0435000020661391
 30
0
 11
-0.0690000032773241
 21
0.0690000032773241
 31
0
 12
-0.0535000025411136
 22
0.0690000032773241
 32
0
 13
-0.0535000025411136
 23
0.0690000032773241
 33
0
0
3DFACE
8
8
 62
8
 10
-0.0690000032773241
 20
-0.0690000032773241
 30
0
 11
-0.0535000025411136
 21
0.0690000032773241
 31
0
 12
0.0535000025411136
 22
0.0850000040372834
 32
0
 13
0.0535000025411136
 23
0.0850000040372834
 33
0
0
3DFACE
8
8
 62
8
 10
-0.0535000025411136
 20
0.0690000032773241
 30
0
 11
-0.0535000025411136
 21
0.0850000040372834
 31
0
 12
0.0535000025411136
 22
0.0850000040372834
 32
0
 13
0.0535000025411136
 23
0.0850000040372834
 33
0
0
3DFACE
8
8
 62
8
 10
-0.0690000032773241
 20
-0.0690000032773241
 30
0
 11
0.0535000025411136
 21
0.0850000040372834
 31
0
 12
0.0535000025411136
 22
0.0690000032773241
 32
0
 13
0.0535000025411136
 23
0.0690000032773241
 33
0
0
3DFACE
8
8
 62
8
 10
-0.0690000032773241
 20
-0.0690000032773241
 30
0
 11
0.0535000025411136
 21
0.0690000032773241
 31
0
 12
0.0690000032773241
 22
0.0690000032773241
 32
0
 13
0.0690000032773241
 23
0.0690000032773241
 33
0
0
3DFACE
8
8
 62
8
 10
-0.0690000032773241
 20
-0.0690000032773241
 30
0
 11
0.0690000032773241
 21
0.0690000032773241
 31
0
 12
0.0690000032773241
 22
0.0435000020661391
 32
0
 13
0.0690000032773241
 23
0.0435000020661391
 33
0
0
3DFACE
8
8
 62
8
 10
-0.0690000032773241
 20
-0.0690000032773241
 30
0
 11
0.0690000032773241
 21
0.0435000020661391
 31
0
 12
0.0850000040372834
 22
0.0435000020661391
 32
0
 13
0.0850000040372834
 23
0.0435000020661391
 33
0
0
3DFACE
8
8
 62
8
 10
-0.0690000032773241
 20
-0.0690000032773241
 30
0
 11
0.0850000040372834
 21
0.0435000020661391
 31
0
 12
0.0690000032773241
 22
-0.0435000020661391
 32
0
 13
0.0690000032773241
 23
-0.0435000020661391
 33
0
0
3DFACE
8
8
 62
8
 10
0.0850000040372834
 20
0.0435000020661391
 30
0
 11
0.0850000040372834
 21
-0.0435000020661391
 31
0
 12
0.0690000032773241
 22
-0.0435000020661391
 32
0
 13
0.0690000032773241
 23
-0.0435000020661391
 33
0
0
3DFACE
8
8
 62
8
 10
-0.0690000032773241
 20
-0.0690000032773241
 30
0
 11
0.0690000032773241
 21
-0.0435000020661391
 31
0
 12
-0.0535000025411136
 22
-0.0690000032773241
 32
0
 13
-0.0535000025411136
 23
-0.0690000032773241
 33
0
0
3DFACE
8
8
 62
8
 10
0.0690000032773241
 20
-0.0435000020661391
 30
0
 11
0.0690000032773241
 21
-0.0690000032773241
 31
0
 12
0.0535000025411136
 22
-0.0690000032773241
 32
0
 13
0.0535000025411136
 23
-0.0690000032773241
 33
0
0
3DFACE
8
8
 62
8
 10
0.0690000032773241
 20
-0.0435000020661391
 30
0
 11
0.0535000025411136
 21
-0.0690000032773241
 31
0
 12
-0.0535000025411136
 22
-0.0850000040372834
 32
0
 13
-0.0535000025411136
 23
-0.0850000040372834
 33
0
0
3DFACE
8
8
 62
8
 10
0.0535000025411136
 20
-0.0690000032773241
 30
0
 11
0.0535000025411136
 21
-0.0850000040372834
 31
0
 12
-0.0535000025411136
 22
-0.0850000040372834
 32
0
 13
-0.0535000025411136
 23
-0.0850000040372834
 33
0
0
3DFACE
8
8
 62
8
 10
0.0690000032773241
 20
-0.0435000020661391
 30
0
 11
-0.0535000025411136
 21
-0.0850000040372834
 31
0
 12
-0.0535000025411136
 22
-0.0690000032773241
 32
0
 13
-0.0535000025411136
 23
-0.0690000032773241
 33
0
0
3DFACE
8
8
 62
8
 10
-0.0690000032773241
 20
-0.0690000032773241
 30
0.0300000014249235
 11
-0.0690000032773241
 21
-0.0435000020661391
 31
0.0300000014249235
 12
-0.0535000025411136
 22
0.0690000032773241
 32
0.0300000014249235
 13
-0.0535000025411136
 23
0.0690000032773241
 33
0.0300000014249235
0
3DFACE
8
8
 62
8
 10
-0.0690000032773241
 20
-0.0435000020661391
 30
0.0300000014249235
 11
-0.0850000040372834
 21
-0.0435000020661391
 31
0.0300000014249235
 12
-0.0850000040372834
 22
0.0435000020661391
 32
0.0300000014249235
 13
-0.0850000040372834
 23
0.0435000020661391
 33
0.0300000014249235
0
3DFACE
8
8
 62
8
 10
-0.0690000032773241
 20
-0.0435000020661391
 30
0.0300000014249235
 11
-0.0850000040372834
 21
0.0435000020661391
 31
0.0300000014249235
 12
-0.0690000032773241
 22
0.0435000020661391
 32
0.0300000014249235
 13
-0.0690000032773241
 23
0.0435000020661391
 33
0.0300000014249235
0
3DFACE
8
8
 62
8
 10
-0.0690000032773241
 20
-0.0435000020661391
 30
0.0300000014249235
 11
-0.0690000032773241
 21
0.0435000020661391
 31
0.0300000014249235
 12
-0.0535000025411136
 22
0.0690000032773241
 32
0.0300000014249235
 13
-0.0535000025411136
 23
0.0690000032773241
 33
0.0300000014249235
0
3DFACE
8
8
 62
8
 10
-0.0690000032773241
 20
0.0435000020661391
 30
0.0300000014249235
 11
-0.0690000032773241
 21
0.0690000032773241
 31
0.0300000014249235
 12
-0.0535000025411136
 22
0.0690000032773241
 32
0.0300000014249235
 13
-0.0535000025411136
 23
0.0690000032773241
 33
0.0300000014249235
0
3DFACE
8
8
 62
8
 10
-0.0690000032773241
 20
-0.0690000032773241
 30
0.0300000014249235
 11
-0.0535000025411136
 21
0.0690000032773241
 31
0.0300000014249235
 12
0.0535000025411136
 22
0.0850000040372834
 32
0.0300000014249235
 13
0.0535000025411136
 23
0.0850000040372834
 33
0.0300000014249235
0
3DFACE
8
8
 62
8
 10
-0.0535000025411136
 20
0.0690000032773241
 30
0.0300000014249235
 11
-0.0535000025411136
 21
0.0850000040372834
 31
0.0300000014249235
 12
0.0535000025411136
 22
0.0850000040372834
 32
0.0300000014249235
 13
0.0535000025411136
 23
0.0850000040372834
 33
0.0300000014249235
0
3DFACE
8
8
 62
8
 10
-0.0690000032773241
 20
-0.0690000032773241
 30
0.0300000014249235
 11
0.0535000025411136
 21
0.0850000040372834
 31
0.0300000014249235
 12
0.0535000025411136
 22
0.0690000032773241
 32
0.0300000014249235
 13
0.0535000025411136
 23
0.0690000032773241
 33
0.0300000014249235
0
3DFACE
8
8
 62
8
 10
-0.0690000032773241
 20
-0.0690000032773241
 30
0.0300000014249235
 11
0.0535000025411136
 21
0.0690000032773241
 31
0.0300000014249235
 12
0.0690000032773241
 22
0.0690000032773241
 32
0.0300000014249235
 13
0.0690000032773241
 23
0.0690000032773241
 33
0.0300000014249235
0
3DFACE
8
8
 62
8
 10
-0.0690000032773241
 20
-0.0690000032773241
 30
0.0300000014249235
 11
0.0690000032773241
 21
0.0690000032773241
 31
0.0300000014249235
 12
0.0690000032773241
 22
0.0435000020661391
 32
0.0300000014249235
 13
0.0690000032773241
 23
0.0435000020661391
 33
0.0300000014249235
0
3DFACE
8
8
 62
8
 10
-0.0690000032773241
 20
-0.0690000032773241
 30
0.0300000014249235
 11
0.0690000032773241
 21
0.0435000020661391
 31
0.0300000014249235
 12
0.0850000040372834
 22
0.0435000020661391
 32
0.0300000014249235
 13
0.0850000040372834
 23
0.0435000020661391
 33
0.0300000014249235
0
3DFACE
8
8
 62
8
 10
-0.0690000032773241
 20
-0.0690000032773241
 30
0.0300000014249235
 11
0.0850000040372834
 21
0.0435000020661391
 31
0.0300000014249235
 12
0.0690000032773241
 22
-0.0435000020661391
 32
0.0300000014249235
 13
0.0690000032773241
 23
-0.0435000020661391
 33
0.0300000014249235
0
3DFACE
8
8
 62
8
 10
0.0850000040372834
 20
0.0435000020661391
 30
0.0300000014249235
 11
0.0850000040372834
 21
-0.0435000020661391
 31
0.0300000014249235
 12
0.0690000032773241
 22
-0.0435000020661391
 32
0.0300000014249235
 13
0.0690000032773241
 23
-0.0435000020661391
 33
0.0300000014249235
0
3DFACE
8
8
 62
8
 10
-0.0690000032773241
 20
-0.0690000032773241
 30
0.0300000014249235
 11
0.0690000032773241
 21
-0.0435000020661391
 31
0.0300000014249235
 12
-0.0535000025411136
 22
-0.0690000032773241
 32
0.0300000014249235
 13
-0.0535000025411136
 23
-0.0690000032773241
 33
0.0300000014249235
0
3DFACE
8
8
 62
8
 10
0.0690000032773241
 20
-0.0435000020661391
 30
0.0300000014249235
 11
0.0690000032773241
 21
-0.0690000032773241
 31
0.0300000014249235
 12
0.0535000025411136
 22
-0.0690000032773241
 32
0.0300000014249235
 13
0.0535000025411136
 23
-0.0690000032773241
 33
0.0300000014249235
0
3DFACE
8
8
 62
8
 10
0.0690000032773241
 20
-0.0435000020661391
 30
0.0300000014249235
 11
0.0535000025411136
 21
-0.0690000032773241
 31
0.0300000014249235
 12
-0.0535000025411136
 22
-0.0850000040372834
 32
0.0300000014249235
 13
-0.0535000025411136
 23
-0.0850000040372834
 33
0.0300000014249235
0
3DFACE
8
8
 62
8
 10
0.0535000025411136
 20
-0.0690000032773241
 30
0.0300000014249235
 11
0.0535000025411136
 21
-0.0850000040372834
 31
0.0300000014249235
 12
-0.0535000025411136
 22
-0.0850000040372834
 32
0.0300000014249235
 13
-0.0535000025411136
 23
-0.0850000040372834
 33
0.0300000014249235
0
3DFACE
8
8
 62
8
 10
0.0690000032773241
 20
-0.0435000020661391
 30
0.0300000014249235
 11
-0.0535000025411136
 21
-0.0850000040372834
 31
0.0300000014249235
 12
-0.0535000025411136
 22
-0.0690000032773241
 32
0.0300000014249235
 13
-0.0535000025411136
 23
-0.0690000032773241
 33
0.0300000014249235
0
3DFACE
8
8
 62
8
 10
-0.0535000025411136
 20
-0.0690000032773241
 30
0
 11
-0.0690000032773241
 21
-0.0690000032773241
 31
0
 12
-0.0690000032773241
 22
-0.0690000032773241
 32
0.0300000014249235
 13
-0.0535000025411136
 23
-0.0690000032773241
 33
0.0300000014249235
0
3DFACE
8
8
 62
8
 10
-0.0690000032773241
 20
-0.0690000032773241
 30
0
 11
-0.0690000032773241
 21
-0.0435000020661391
 31
0
 12
-0.0690000032773241
 22
-0.0435000020661391
 32
0.0300000014249235
 13
-0.0690000032773241
 23
-0.0690000032773241
 33
0.0300000014249235
0
3DFACE
8
8
 62
8
 10
-0.0690000032773241
 20
-0.0435000020661391
 30
0
 11
-0.0850000040372834
 21
-0.0435000020661391
 31
0
 12
-0.0850000040372834
 22
-0.0435000020661391
 32
0.0300000014249235
 13
-0.0690000032773241
 23
-0.0435000020661391
 33
0.0300000014249235
0
3DFACE
8
8
 62
8
 10
-0.0850000040372834
 20
-0.0435000020661391
 30
0
 11
-0.0850000040372834
 21
0.0435000020661391
 31
0
 12
-0.0850000040372834
 22
0.0435000020661391
 32
0.0300000014249235
 13
-0.0850000040372834
 23
-0.0435000020661391
 33
0.0300000014249235
0
3DFACE
8
8
 62
8
 10
-0.0850000040372834
 20
0.0435000020661391
 30
0
 11
-0.0690000032773241
 21
0.0435000020661391
 31
0
 12
-0.0690000032773241
 22
0.0435000020661391
 32
0.0300000014249235
 13
-0.0850000040372834
 23
0.0435000020661391
 33
0.0300000014249235
0
3DFACE
8
8
 62
8
 10
-0.0690000032773241
 20
0.0435000020661391
 30
0
 11
-0.0690000032773241
 21
0.0690000032773241
 31
0
 12
-0.0690000032773241
 22
0.0690000032773241
 32
0.0300000014249235
 13
-0.0690000032773241
 23
0.0435000020661391
 33
0.0300000014249235
0
3DFACE
8
8
 62
8
 10
-0.0690000032773241
 20
0.0690000032773241
 30
0
 11
-0.0535000025411136
 21
0.0690000032773241
 31
0
 12
-0.0535000025411136
 22
0.0690000032773241
 32
0.0300000014249235
 13
-0.0690000032773241
 23
0.0690000032773241
 33
0.0300000014249235
0
3DFACE
8
8
 62
8
 10
-0.0535000025411136
 20
0.0690000032773241
 30
0
 11
-0.0535000025411136
 21
0.0850000040372834
 31
0
 12
-0.0535000025411136
 22
0.0850000040372834
 32
0.0300000014249235
 13
-0.0535000025411136
 23
0.0690000032773241
 33
0.0300000014249235
0
3DFACE
8
8
 62
8
 10
-0.0535000025411136
 20
0.0850000040372834
 30
0
 11
0.0535000025411136
 21
0.0850000040372834
 31
0
 12
0.0535000025411136
 22
0.0850000040372834
 32
0.0300000014249235
 13
-0.0535000025411136
 23
0.0850000040372834
 33
0.0300000014249235
0
3DFACE
8
8
 62
8
 10
0.0535000025411136
 20
0.0850000040372834
 30
0
 11
0.0535000025411136
 21
0.0690000032773241
 31
0
 12
0.0535000025411136
 22
0.0690000032773241
 32
0.0300000014249235
 13
0.0535000025411136
 23
0.0850000040372834
 33
0.0300000014249235
0
3DFACE
8
8
 62
8
 10
0.0535000025411136
 20
0.0690000032773241
 30
0
 11
0.0690000032773241
 21
0.0690000032773241
 31
0
 12
0.0690000032773241
 22
0.0690000032773241
 32
0.0300000014249235
 13
0.0535000025411136
 23
0.0690000032773241
 33
0.0300000014249235
0
3DFACE
8
8
 62
8
 10
0.0690000032773241
 20
0.0690000032773241
 30
0
 11
0.0690000032773241
 21
0.0435000020661391
 31
0
 12
0.0690000032773241
 22
0.0435000020661391
 32
0.0300000014249235
 13
0.0690000032773241
 23
0.0690000032773241
 33
0.0300000014249235
0
3DFACE
8
8
 62
8
 10
0.0690000032773241
 20
0.0435000020661391
 30
0
 11
0.0850000040372834
 21
0.0435000020661391
 31
0
 12
0.0850000040372834
 22
0.0435000020661391
 32
0.0300000014249235
 13
0.0690000032773241
 23
0.0435000020661391
 33
0.0300000014249235
0
3DFACE
8
8
 62
8
 10
0.0850000040372834
 20
0.0435000020661391
 30
0
 11
0.0850000040372834
 21
-0.0435000020661391
 31
0
 12
0.0850000040372834
 22
-0.0435000020661391
 32
0.0300000014249235
 13
0.0850000040372834
 23
0.0435000020661391
 33
0.0300000014249235
0
3DFACE
8
8
 62
8
 10
0.0850000040372834
 20
-0.0435000020661391
 30
0
 11
0.0690000032773241
 21
-0.0435000020661391
 31
0
 12
0.0690000032773241
 22
-0.0435000020661391
 32
0.0300000014249235
 13
0.0850000040372834
 23
-0.0435000020661391
 33
0.0300000014249235
0
3DFACE
8
8
 62
8
 10
0.0690000032773241
 20
-0.0435000020661391
 30
0
 11
0.0690000032773241
 21
-0.0690000032773241
 31
0
 12
0.0690000032773241
 22
-0.0690000032773241
 32
0.0300000014249235
 13
0.0690000032773241
 23
-0.0435000020661391
 33
0.0300000014249235
0
3DFACE
8
8
 62
8
 10
0.0690000032773241
 20
-0.0690000032773241
 30
0
 11
0.0535000025411136
 21
-0.0690000032773241
 31
0
 12
0.0535000025411136
 22
-0.0690000032773241
 32
0.0300000014249235
 13
0.0690000032773241
 23
-0.0690000032773241
 33
0.0300000014249235
0
3DFACE
8
8
 62
8
 10
0.0535000025411136
 20
-0.0690000032773241
 30
0
 11
0.0535000025411136
 21
-0.0850000040372834
 31
0
 12
0.0535000025411136
 22
-0.0850000040372834
 32
0.0300000014249235
 13
0.0535000025411136
 23
-0.0690000032773241
 33
0.0300000014249235
0
3DFACE
8
8
 62
8
 10
0.0535000025411136
 20
-0.0850000040372834
 30
0
 11
-0.0535000025411136
 21
-0.0850000040372834
 31
0
 12
-0.0535000025411136
 22
-0.0850000040372834
 32
0.0300000014249235
 13
0.0535000025411136
 23
-0.0850000040372834
 33
0.0300000014249235
0
3DFACE
8
8
 62
8
 10
-0.0535000025411136
 20
-0.0850000040372834
 30
0
 11
-0.0535000025411136
 21
-0.0690000032773241
 31
0
 12
-0.0535000025411136
 22
-0.0690000032773241
 32
0.0300000014249235
 13
-0.0535000025411136
 23
-0.0850000040372834
 33
0.0300000014249235
 0
ENDBLK
 0
BLOCK
 70
0
 2
TOP_VALOR_Polygon_83
 10
0
 20
0
 30
0
0
3DFACE
8
23
 62
23
 10
-0.0900000042747706
 20
-0.0900000042747706
 30
0
 11
-0.0900000042747706
 21
0.0900000042747706
 31
0
 12
0.0900000042747706
 22
0.0900000042747706
 32
0
 13
0.0900000042747706
 23
-0.0900000042747706
 33
0
0
3DFACE
8
23
 62
23
 10
-0.0900000042747706
 20
-0.0900000042747706
 30
0.0300000014249235
 11
-0.0900000042747706
 21
0.0900000042747706
 31
0.0300000014249235
 12
0.0900000042747706
 22
0.0900000042747706
 32
0.0300000014249235
 13
0.0900000042747706
 23
-0.0900000042747706
 33
0.0300000014249235
0
3DFACE
8
23
 62
23
 10
0.0900000042747706
 20
-0.0900000042747706
 30
0
 11
-0.0900000042747706
 21
-0.0900000042747706
 31
0
 12
-0.0900000042747706
 22
-0.0900000042747706
 32
0.0300000014249235
 13
0.0900000042747706
 23
-0.0900000042747706
 33
0.0300000014249235
0
3DFACE
8
23
 62
23
 10
-0.0900000042747706
 20
-0.0900000042747706
 30
0
 11
-0.0900000042747706
 21
0.0900000042747706
 31
0
 12
-0.0900000042747706
 22
0.0900000042747706
 32
0.0300000014249235
 13
-0.0900000042747706
 23
-0.0900000042747706
 33
0.0300000014249235
0
3DFACE
8
23
 62
23
 10
-0.0900000042747706
 20
0.0900000042747706
 30
0
 11
0.0900000042747706
 21
0.0900000042747706
 31
0
 12
0.0900000042747706
 22
0.0900000042747706
 32
0.0300000014249235
 13
-0.0900000042747706
 23
0.0900000042747706
 33
0.0300000014249235
0
3DFACE
8
23
 62
23
 10
0.0900000042747706
 20
0.0900000042747706
 30
0
 11
0.0900000042747706
 21
-0.0900000042747706
 31
0
 12
0.0900000042747706
 22
-0.0900000042747706
 32
0.0300000014249235
 13
0.0900000042747706
 23
0.0900000042747706
 33
0.0300000014249235
 0
ENDBLK
0
ENDSEC
0
SECTION
2
ENTITIES
 0
INSERT
 8
2
 2
TOP_SILKSCREEN_Polygon_8
 10
0
 20
0
 30
0
 41
1
 42
1
 43
1
 0
INSERT
 8
8
 2
TOP_PLACE_BOUND_Polygon_51
 10
0
 20
0
 30
0
 41
1
 42
1
 43
1
 0
INSERT
 8
23
 2
TOP_VALOR_Polygon_83
 10
0
 20
0
 30
0
 41
1
 42
1
 43
1
0
ENDSEC
 0
EOF

