<?xml version="1.0" encoding="UTF-8" standalone="no"?>
<svg
   version="1.1"
   viewBox="0 0 35 35 "
   stroke="none"
   id="svg3095"
   sodipodi:docname="ret1.svg"
   inkscape:export-filename="ret1.png"
   inkscape:export-xdpi="2742.8572"
   inkscape:export-ydpi="2742.8572"
   inkscape:version="1.2.2 (732a01da63, 2022-12-09)"
   xmlns:inkscape="http://www.inkscape.org/namespaces/inkscape"
   xmlns:sodipodi="http://sodipodi.sourceforge.net/DTD/sodipodi-0.dtd"
   xmlns="http://www.w3.org/2000/svg"
   xmlns:svg="http://www.w3.org/2000/svg">
  <defs
     id="defs3099" />
  <sodipodi:namedview
     id="namedview3097"
     pagecolor="#ffffff"
     bordercolor="#000000"
     borderopacity="0.25"
     inkscape:showpageshadow="2"
     inkscape:pageopacity="0.0"
     inkscape:pagecheckerboard="0"
     inkscape:deskcolor="#d1d1d1"
     showgrid="false"
     inkscape:zoom="23.228571"
     inkscape:cx="10.827183"
     inkscape:cy="17.521525"
     inkscape:window-width="1920"
     inkscape:window-height="1017"
     inkscape:window-x="-8"
     inkscape:window-y="-8"
     inkscape:window-maximized="1"
     inkscape:current-layer="svg3095" />
  <!-- QrBackground  -->
  <g
     id="QrBackground"
     fill="#FFFFFF">
    <rect
       width="35"
       height="35"
       rx="3"
       ry="3"
       id="rect1942" />
  </g>
  <!-- QrBody  -->
  <g
     id="QrBody">
    <!-- BODY     -->
    <g
       id="BODY"
       fill="#000000">
      <path
         d="M11 2 L11 1.5 A0.5 0.5 0 0 1 12 1.5 L12 2 Z"
         id="path1945" />
      <circle
         cx="13.5"
         cy="1.5"
         r="0.5"
         id="circle1947" />
      <path
         d="M15 2 L15 1.5 A0.5 0.5 0 0 1 16 1.5 L16 2 Z"
         id="path1949" />
      <path
         d="M17 2 L17 1.5 A0.5 0.5 0 0 1 18 1.5 L18 2 Z"
         id="path1951" />
      <path
         d="M22 1 A1 1 0 0 0 21 2 L22 2 Z"
         id="path1953" />
      <path
         d="M22 1 h1v1h-1z Z"
         id="path1955" />
      <path
         d="M23 1 L23.5 1 A0.5 0.5 0 0 1 23.5 2 L23 2 Z"
         id="path1957" />
      <circle
         cx="9.5"
         cy="2.5"
         r="0.5"
         id="circle1959" />
      <path
         d="M11 2 L11 2.5 A0.5 0.5 0 0 0 12 2.5 L12 2 Z"
         id="path1961" />
      <path
         d="M15 2 L14.5 2 A0.5 0.5 0 0 0 14.5 3 L15 3 Z"
         id="path1963" />
      <path
         d="M15 2 h1v1h-1z Z"
         id="path1965" />
      <path
         d="M16 2 h1v1h-1z Z"
         id="path1967" />
      <path
         d="M17 2 h1v1h-1z Z"
         id="path1969" />
      <path
         d="M19 3 L19 2.5 A0.5 0.5 0 0 1 20 2.5 L20 3 Z"
         id="path1971" />
      <path
         d="M21 2 h1v1h-1z Z"
         id="path1973" />
      <path
         d="M22 2 h1v1h-1z Z"
         id="path1975" />
      <path
         d="M13 4 L13 3.5 A0.5 0.5 0 0 1 14 3.5 L14 4 Z"
         id="path1977" />
      <path
         d="M16 3 h1v1h-1z Z"
         id="path1979" />
      <path
         d="M18 3 A1 1 0 0 1 17 4 L17 3 Z"
         id="path1981" />
      <path
         d="M19 3 A1 1 0 0 0 20 4 L20 3 Z"
         id="path1983" />
      <path
         d="M20 3 h1v1h-1z Z"
         id="path1985" />
      <path
         d="M21 3 h1v1h-1z Z"
         id="path1987" />
      <path
         d="M22 3 h1v1h-1z Z"
         id="path1989" />
      <path
         d="M24 4 L24 3.5 A0.5 0.5 0 0 1 25 3.5 L25 4 Z"
         id="path1991" />
      <path
         d="M10 4 L9.5 4 A0.5 0.5 0 0 0 9.5 5 L10 5 Z"
         id="path1993" />
      <path
         d="M10 4 h1v1h-1z Z"
         id="path1995" />
      <path
         d="M11 4 L11.5 4 A0.5 0.5 0 0 1 11.5 5 L11 5 Z"
         id="path1997" />
      <path
         d="M13 4 L13 4.5 A0.5 0.5 0 0 0 14 4.5 L14 4 Z"
         id="path1999" />
      <path
         d="M16 4 L15.5 4 A0.5 0.5 0 0 0 15.5 5 L16 5 Z"
         id="path2001" />
      <path
         d="M17 4 A1 1 0 0 1 16 5 L16 4 Z"
         id="path2003" />
      <path
         d="M18 5 L18 4.5 A0.5 0.5 0 0 1 19 4.5 L19 5 Z"
         id="path2005" />
      <path
         d="M20 4 A1 1 0 0 0 21 5 L21 4 Z"
         id="path2007" />
      <path
         d="M21 4 h1v1h-1z Z"
         id="path2009" />
      <path
         d="M22 4 h1v1h-1z Z"
         id="path2011" />
      <path
         d="M23 4 h1v1h-1z Z"
         id="path2013" />
      <path
         d="M24 4 h1v1h-1z Z"
         id="path2015" />
      <path
         d="M25 4 A1 1 0 0 1 26 5 L25 5 Z"
         id="path2017" />
      <path
         d="M10 5 h1v1h-1z Z"
         id="path2019" />
      <path
         d="M18 5 L17.5 5 A0.5 0.5 0 0 0 17.5 6 L18 6 Z"
         id="path2021" />
      <path
         d="M18 5 h1v1h-1z Z"
         id="path2023" />
      <path
         d="M19 5 L19.5 5 A0.5 0.5 0 0 1 19.5 6 L19 6 Z"
         id="path2025" />
      <path
         d="M21 5 h1v1h-1z Z"
         id="path2027" />
      <path
         d="M22 5 h1v1h-1z Z"
         id="path2029" />
      <path
         d="M23 5 h1v1h-1z Z"
         id="path2031" />
      <path
         d="M24 5 h1v1h-1z Z"
         id="path2033" />
      <path
         d="M25 5 h1v1h-1z Z"
         id="path2035" />
      <path
         d="M10 6 A1 1 0 0 0 9 7 L10 7 Z"
         id="path2037" />
      <path
         d="M11 6 A1 1 0 0 1 10 7 L10 6 Z"
         id="path2039" />
      <path
         d="M13 6 L12.5 6 A0.5 0.5 0 0 0 12.5 7 L13 7 Z"
         id="path2041" />
      <path
         d="M13 6 h1v1h-1z Z"
         id="path2043" />
      <path
         d="M14 6 L14.5 6 A0.5 0.5 0 0 1 14.5 7 L14 7 Z"
         id="path2045" />
      <circle
         cx="16.5"
         cy="6.5"
         r="0.5"
         id="circle2047" />
      <path
         d="M18 6 L18 6.5 A0.5 0.5 0 0 0 19 6.5 L19 6 Z"
         id="path2049" />
      <path
         d="M21 6 h1v1h-1z Z"
         id="path2051" />
      <path
         d="M25 6 h1v1h-1z Z"
         id="path2053" />
      <path
         d="M9 7 L9 7.5 A0.5 0.5 0 0 0 10 7.5 L10 7 Z"
         id="path2055" />
      <path
         d="M11 8 L11 7.5 A0.5 0.5 0 0 1 12 7.5 L12 8 Z"
         id="path2057" />
      <path
         d="M13 7 L13 7.5 A0.5 0.5 0 0 0 14 7.5 L14 7 Z"
         id="path2059" />
      <circle
         cx="15.5"
         cy="7.5"
         r="0.5"
         id="circle2061" />
      <path
         d="M17 8 L17 7.5 A0.5 0.5 0 0 1 18 7.5 L18 8 Z"
         id="path2063" />
      <circle
         cx="19.5"
         cy="7.5"
         r="0.5"
         id="circle2065" />
      <path
         d="M21 7 L21 7.5 A0.5 0.5 0 0 0 22 7.5 L22 7 Z"
         id="path2067" />
      <circle
         cx="23.5"
         cy="7.5"
         r="0.5"
         id="circle2069" />
      <path
         d="M25 7 L25 7.5 A0.5 0.5 0 0 0 26 7.5 L26 7 Z"
         id="path2071" />
      <path
         d="M11 8 A1 1 0 0 0 10 9 L11 9 Z"
         id="path2073" />
      <path
         d="M11 8 h1v1h-1z Z"
         id="path2075" />
      <path
         d="M12 8 A1 1 0 0 1 13 9 L12 9 Z"
         id="path2077" />
      <path
         d="M17 8 A1 1 0 0 0 16 9 L17 9 Z"
         id="path2079" />
      <path
         d="M18 8 A1 1 0 0 1 17 9 L17 8 Z"
         id="path2081" />
      <circle
         cx="20.5"
         cy="8.5"
         r="0.5"
         id="circle2083" />
      <path
         d="M22 9 L22 8.5 A0.5 0.5 0 0 1 23 8.5 L23 9 Z"
         id="path2085" />
      <path
         d="M24 9 L24 8.5 A0.5 0.5 0 0 1 25 8.5 L25 9 Z"
         id="path2087" />
      <path
         d="M2 9 L1.5 9 A0.5 0.5 0 0 0 1.5 10 L2 10 Z"
         id="path2089" />
      <path
         d="M2 9 h1v1h-1z Z"
         id="path2091" />
      <path
         d="M3 9 h1v1h-1z Z"
         id="path2093" />
      <path
         d="M4 9 h1v1h-1z Z"
         id="path2095" />
      <path
         d="M5 9 L5.5 9 A0.5 0.5 0 0 1 5.5 10 L5 10 Z"
         id="path2097" />
      <path
         d="M8 9 L7.5 9 A0.5 0.5 0 0 0 7.5 10 L8 10 Z"
         id="path2099" />
      <path
         d="M8 9 h1v1h-1z Z"
         id="path2101" />
      <path
         d="M9 9 h1v1h-1z Z"
         id="path2103" />
      <path
         d="M11 9 A1 1 0 0 1 10 10 L10 9 Z"
         id="path2105" />
      <path
         d="M12 9 L12 9.5 A0.5 0.5 0 0 0 13 9.5 L13 9 Z"
         id="path2107" />
      <path
         d="M15 9 A1 1 0 0 0 14 10 L15 10 Z"
         id="path2109" />
      <path
         d="M15 9 h1v1h-1z Z"
         id="path2111" />
      <path
         d="M16 9 h1v1h-1z Z"
         id="path2113" />
      <circle
         cx="18.5"
         cy="9.5"
         r="0.5"
         id="circle2115" />
      <path
         d="M22 9 h1v1h-1z Z"
         id="path2117" />
      <path
         d="M23 9 h1v1h-1z Z"
         id="path2119" />
      <path
         d="M24 9 h1v1h-1z Z"
         id="path2121" />
      <path
         d="M25 9 h1v1h-1z Z"
         id="path2123" />
      <path
         d="M26 9 L26.5 9 A0.5 0.5 0 0 1 26.5 10 L26 10 Z"
         id="path2125" />
      <circle
         cx="28.5"
         cy="9.5"
         r="0.5"
         id="circle2127" />
      <circle
         cx="30.5"
         cy="9.5"
         r="0.5"
         id="circle2129" />
      <path
         d="M32 10 L32 9.5 A0.5 0.5 0 0 1 33 9.5 L33 10 Z"
         id="path2131" />
      <path
         d="M2 10 h1v1h-1z Z"
         id="path2133" />
      <path
         d="M4 10 A1 1 0 0 1 3 11 L3 10 Z"
         id="path2135" />
      <path
         d="M6 11 L6 10.5 A0.5 0.5 0 0 1 7 10.5 L7 11 Z"
         id="path2137" />
      <path
         d="M8 10 h1v1h-1z Z"
         id="path2139" />
      <path
         d="M10 10 A1 1 0 0 1 9 11 L9 10 Z"
         id="path2141" />
      <path
         d="M11 11 L11 10.5 A0.5 0.5 0 0 1 12 10.5 L12 11 Z"
         id="path2143" />
      <path
         d="M14 10 L13.5 10 A0.5 0.5 0 0 0 13.5 11 L14 11 Z"
         id="path2145" />
      <path
         d="M14 10 h1v1h-1z Z"
         id="path2147" />
      <path
         d="M16 10 h1v1h-1z Z"
         id="path2149" />
      <path
         d="M17 10 A1 1 0 0 1 18 11 L17 11 Z"
         id="path2151" />
      <path
         d="M22 10 A1 1 0 0 0 21 11 L22 11 Z"
         id="path2153" />
      <path
         d="M22 10 h1v1h-1z Z"
         id="path2155" />
      <path
         d="M23 10 h1v1h-1z Z"
         id="path2157" />
      <path
         d="M25 10 A1 1 0 0 1 24 11 L24 10 Z"
         id="path2159" />
      <circle
         cx="27.5"
         cy="10.5"
         r="0.5"
         id="circle2161" />
      <path
         d="M32 10 L31.5 10 A0.5 0.5 0 0 0 31.5 11 L32 11 Z"
         id="path2163" />
      <path
         d="M32 10 h1v1h-1z Z"
         id="path2165" />
      <path
         d="M33 10 L33.5 10 A0.5 0.5 0 0 1 33.5 11 L33 11 Z"
         id="path2167" />
      <path
         d="M2 11 h1v1h-1z Z"
         id="path2169" />
      <path
         d="M6 11 A1 1 0 0 0 7 12 L7 11 Z"
         id="path2171" />
      <path
         d="M7 11 h1v1h-1z Z"
         id="path2173" />
      <path
         d="M9 11 A1 1 0 0 1 8 12 L8 11 Z"
         id="path2175" />
      <path
         d="M11 11 L11 11.5 A0.5 0.5 0 0 0 12 11.5 L12 11 Z"
         id="path2177" />
      <path
         d="M14 11 A1 1 0 0 0 15 12 L15 11 Z"
         id="path2179" />
      <path
         d="M15 11 h1v1h-1z Z"
         id="path2181" />
      <path
         d="M16 11 h1v1h-1z Z"
         id="path2183" />
      <path
         d="M17 11 h1v1h-1z Z"
         id="path2185" />
      <path
         d="M18 11 L18.5 11 A0.5 0.5 0 0 1 18.5 12 L18 12 Z"
         id="path2187" />
      <path
         d="M21 11 h1v1h-1z Z"
         id="path2189" />
      <path
         d="M22 11 h1v1h-1z Z"
         id="path2191" />
      <path
         d="M24 11 A1 1 0 0 1 23 12 L23 11 Z"
         id="path2193" />
      <path
         d="M29 11 L28.5 11 A0.5 0.5 0 0 0 28.5 12 L29 12 Z"
         id="path2195" />
      <path
         d="M29 11 h1v1h-1z Z"
         id="path2197" />
      <path
         d="M30 11 L30.5 11 A0.5 0.5 0 0 1 30.5 12 L30 12 Z"
         id="path2199" />
      <path
         d="M32 11 L32 11.5 A0.5 0.5 0 0 0 33 11.5 L33 11 Z"
         id="path2201" />
      <path
         d="M2 12 A1 1 0 0 0 3 13 L3 12 Z"
         id="path2203" />
      <path
         d="M3 12 h1v1h-1z Z"
         id="path2205" />
      <path
         d="M4 12 h1v1h-1z Z"
         id="path2207" />
      <path
         d="M5 12 A1 1 0 0 1 6 13 L5 13 Z"
         id="path2209" />
      <path
         d="M9 13 L9 12.5 A0.5 0.5 0 0 1 10 12.5 L10 13 Z"
         id="path2211" />
      <path
         d="M13 13 L13 12.5 A0.5 0.5 0 0 1 14 12.5 L14 13 Z"
         id="path2213" />
      <path
         d="M15 12 h1v1h-1z Z"
         id="path2215" />
      <path
         d="M17 12 h1v1h-1z Z"
         id="path2217" />
      <path
         d="M21 12 A1 1 0 0 0 22 13 L22 12 Z"
         id="path2219" />
      <path
         d="M22 12 h1v1h-1z Z"
         id="path2221" />
      <path
         d="M26 12 A1 1 0 0 0 25 13 L26 13 Z"
         id="path2223" />
      <path
         d="M26 12 h1v1h-1z Z"
         id="path2225" />
      <path
         d="M27 12 L27.5 12 A0.5 0.5 0 0 1 27.5 13 L27 13 Z"
         id="path2227" />
      <path
         d="M29 12 h1v1h-1z Z"
         id="path2229" />
      <circle
         cx="31.5"
         cy="12.5"
         r="0.5"
         id="circle2231" />
      <circle
         cx="1.5"
         cy="13.5"
         r="0.5"
         id="circle2233" />
      <path
         d="M3 13 h1v1h-1z Z"
         id="path2235" />
      <path
         d="M5 13 A1 1 0 0 0 6 14 L6 13 Z"
         id="path2237" />
      <path
         d="M6 13 h1v1h-1z Z"
         id="path2239" />
      <path
         d="M7 13 h1v1h-1z Z"
         id="path2241" />
      <path
         d="M8 13 h1v1h-1z Z"
         id="path2243" />
      <path
         d="M9 13 h1v1h-1z Z"
         id="path2245" />
      <path
         d="M10 13 h1v1h-1z Z"
         id="path2247" />
      <path
         d="M11 13 L11.5 13 A0.5 0.5 0 0 1 11.5 14 L11 14 Z"
         id="path2249" />
      <path
         d="M13 13 A1 1 0 0 0 14 14 L14 13 Z"
         id="path2251" />
      <path
         d="M14 13 h1v1h-1z Z"
         id="path2253" />
      <path
         d="M16 13 A1 1 0 0 1 15 14 L15 13 Z"
         id="path2255" />
      <path
         d="M17 13 h1v1h-1z Z"
         id="path2257" />
      <path
         d="M18 13 L18.5 13 A0.5 0.5 0 0 1 18.5 14 L18 14 Z"
         id="path2259" />
      <path
         d="M20 14 L20 13.5 A0.5 0.5 0 0 1 21 13.5 L21 14 Z"
         id="path2261" />
      <path
         d="M22 13 A1 1 0 0 0 23 14 L23 13 Z"
         id="path2263" />
      <path
         d="M23 13 A1 1 0 0 1 24 14 L23 14 Z"
         id="path2265" />
      <path
         d="M25 13 A1 1 0 0 0 26 14 L26 13 Z"
         id="path2267" />
      <path
         d="M27 13 A1 1 0 0 1 26 14 L26 13 Z"
         id="path2269" />
      <path
         d="M29 13 A1 1 0 0 0 28 14 L29 14 Z"
         id="path2271" />
      <path
         d="M29 13 h1v1h-1z Z"
         id="path2273" />
      <path
         d="M30 13 L30.5 13 A0.5 0.5 0 0 1 30.5 14 L30 14 Z"
         id="path2275" />
      <path
         d="M3 14 h1v1h-1z Z"
         id="path2277" />
      <path
         d="M6 14 L6 14.5 A0.5 0.5 0 0 0 7 14.5 L7 14 Z"
         id="path2279" />
      <path
         d="M8 14 h1v1h-1z Z"
         id="path2281" />
      <path
         d="M9 14 h1v1h-1z Z"
         id="path2283" />
      <path
         d="M17 14 A1 1 0 0 0 16 15 L17 15 Z"
         id="path2285" />
      <path
         d="M17 14 h1v1h-1z Z"
         id="path2287" />
      <path
         d="M20 14 L19.5 14 A0.5 0.5 0 0 0 19.5 15 L20 15 Z"
         id="path2289" />
      <path
         d="M21 14 A1 1 0 0 1 20 15 L20 14 Z"
         id="path2291" />
      <path
         d="M23 14 h1v1h-1z Z"
         id="path2293" />
      <path
         d="M24 14 L24.5 14 A0.5 0.5 0 0 1 24.5 15 L24 15 Z"
         id="path2295" />
      <path
         d="M28 14 A1 1 0 0 0 27 15 L28 15 Z"
         id="path2297" />
      <path
         d="M28 14 h1v1h-1z Z"
         id="path2299" />
      <path
         d="M33 14 A1 1 0 0 0 32 15 L33 15 Z"
         id="path2301" />
      <path
         d="M33 14 L33.5 14 A0.5 0.5 0 0 1 33.5 15 L33 15 Z"
         id="path2303" />
      <path
         d="M3 15 h1v1h-1z Z"
         id="path2305" />
      <path
         d="M4 15 L4.5 15 A0.5 0.5 0 0 1 4.5 16 L4 16 Z"
         id="path2307" />
      <path
         d="M8 15 L7.5 15 A0.5 0.5 0 0 0 7.5 16 L8 16 Z"
         id="path2309" />
      <path
         d="M8 15 h1v1h-1z Z"
         id="path2311" />
      <path
         d="M9 15 h1v1h-1z Z"
         id="path2313" />
      <path
         d="M10 15 h1v1h-1z Z"
         id="path2315" />
      <path
         d="M11 15 h1v1h-1z Z"
         id="path2317" />
      <path
         d="M12 15 h1v1h-1z Z"
         id="path2319" />
      <path
         d="M13 15 L13.5 15 A0.5 0.5 0 0 1 13.5 16 L13 16 Z"
         id="path2321" />
      <path
         d="M16 15 h1v1h-1z Z"
         id="path2323" />
      <path
         d="M18 15 A1 1 0 0 1 17 16 L17 15 Z"
         id="path2325" />
      <path
         d="M23 15 h1v1h-1z Z"
         id="path2327" />
      <path
         d="M27 15 A1 1 0 0 0 26 16 L27 16 Z"
         id="path2329" />
      <path
         d="M27 15 h1v1h-1z Z"
         id="path2331" />
      <path
         d="M28 15 h1v1h-1z Z"
         id="path2333" />
      <path
         d="M29 15 L29.5 15 A0.5 0.5 0 0 1 29.5 16 L29 16 Z"
         id="path2335" />
      <path
         d="M32 15 L32 15.5 A0.5 0.5 0 0 0 33 15.5 L33 15 Z"
         id="path2337" />
      <path
         d="M3 16 L2.5 16 A0.5 0.5 0 0 0 2.5 17 L3 17 Z"
         id="path2339" />
      <path
         d="M3 16 h1v1h-1z Z"
         id="path2341" />
      <path
         d="M6 17 L6 16.5 A0.5 0.5 0 0 1 7 16.5 L7 17 Z"
         id="path2343" />
      <path
         d="M10 16 h1v1h-1z Z"
         id="path2345" />
      <path
         d="M12 16 h1v1h-1z Z"
         id="path2347" />
      <path
         d="M16 16 A1 1 0 0 0 15 17 L16 17 Z"
         id="path2349" />
      <path
         d="M17 16 A1 1 0 0 1 16 17 L16 16 Z"
         id="path2351" />
      <circle
         cx="20.5"
         cy="16.5"
         r="0.5"
         id="circle2353" />
      <path
         d="M23 16 A1 1 0 0 0 22 17 L23 17 Z"
         id="path2355" />
      <path
         d="M23 16 h1v1h-1z Z"
         id="path2357" />
      <path
         d="M26 16 A1 1 0 0 0 25 17 L26 17 Z"
         id="path2359" />
      <path
         d="M26 16 h1v1h-1z Z"
         id="path2361" />
      <path
         d="M27 16 h1v1h-1z Z"
         id="path2363" />
      <path
         d="M28 16 h1v1h-1z Z"
         id="path2365" />
      <circle
         cx="31.5"
         cy="16.5"
         r="0.5"
         id="circle2367" />
      <path
         d="M3 17 h1v1h-1z Z"
         id="path2369" />
      <path
         d="M4 17 A1 1 0 0 1 5 18 L4 18 Z"
         id="path2371" />
      <path
         d="M6 17 A1 1 0 0 0 7 18 L7 17 Z"
         id="path2373" />
      <path
         d="M7 17 h1v1h-1z Z"
         id="path2375" />
      <path
         d="M8 17 h1v1h-1z Z"
         id="path2377" />
      <path
         d="M9 17 h1v1h-1z Z"
         id="path2379" />
      <path
         d="M10 17 h1v1h-1z Z"
         id="path2381" />
      <path
         d="M11 17 h1v1h-1z Z"
         id="path2383" />
      <path
         d="M13 17 A1 1 0 0 1 12 18 L12 17 Z"
         id="path2385" />
      <path
         d="M15 17 L14.5 17 A0.5 0.5 0 0 0 14.5 18 L15 18 Z"
         id="path2387" />
      <path
         d="M15 17 h1v1h-1z Z"
         id="path2389" />
      <path
         d="M18 17 A1 1 0 0 0 17 18 L18 18 Z"
         id="path2391" />
      <path
         d="M18 17 L18.5 17 A0.5 0.5 0 0 1 18.5 18 L18 18 Z"
         id="path2393" />
      <path
         d="M22 17 h1v1h-1z Z"
         id="path2395" />
      <path
         d="M23 17 h1v1h-1z Z"
         id="path2397" />
      <path
         d="M25 17 A1 1 0 0 0 26 18 L26 17 Z"
         id="path2399" />
      <path
         d="M27 17 A1 1 0 0 1 26 18 L26 17 Z"
         id="path2401" />
      <path
         d="M28 17 A1 1 0 0 0 29 18 L29 17 Z"
         id="path2403" />
      <path
         d="M29 17 L29.5 17 A0.5 0.5 0 0 1 29.5 18 L29 18 Z"
         id="path2405" />
      <path
         d="M32 18 L32 17.5 A0.5 0.5 0 0 1 33 17.5 L33 18 Z"
         id="path2407" />
      <path
         d="M2 18 A1 1 0 0 0 1 19 L2 19 Z"
         id="path2409" />
      <path
         d="M2 18 h1v1h-1z Z"
         id="path2411" />
      <path
         d="M3 18 h1v1h-1z Z"
         id="path2413" />
      <path
         d="M4 18 h1v1h-1z Z"
         id="path2415" />
      <path
         d="M9 18 h1v1h-1z Z"
         id="path2417" />
      <path
         d="M11 18 L11 18.5 A0.5 0.5 0 0 0 12 18.5 L12 18 Z"
         id="path2419" />
      <circle
         cx="13.5"
         cy="18.5"
         r="0.5"
         id="circle2421" />
      <path
         d="M15 18 L15 18.5 A0.5 0.5 0 0 0 16 18.5 L16 18 Z"
         id="path2423" />
      <path
         d="M17 18 L17 18.5 A0.5 0.5 0 0 0 18 18.5 L18 18 Z"
         id="path2425" />
      <path
         d="M22 18 A1 1 0 0 0 21 19 L22 19 Z"
         id="path2427" />
      <path
         d="M22 18 h1v1h-1z Z"
         id="path2429" />
      <path
         d="M23 18 h1v1h-1z Z"
         id="path2431" />
      <path
         d="M24 18 L24.5 18 A0.5 0.5 0 0 1 24.5 19 L24 19 Z"
         id="path2433" />
      <path
         d="M27 19 L27 18.5 A0.5 0.5 0 0 1 28 18.5 L28 19 Z"
         id="path2435" />
      <path
         d="M30 19 L30 18.5 A0.5 0.5 0 0 1 31 18.5 L31 19 Z"
         id="path2437" />
      <path
         d="M32 18 h1v1h-1z Z"
         id="path2439" />
      <path
         d="M33 18 L33.5 18 A0.5 0.5 0 0 1 33.5 19 L33 19 Z"
         id="path2441" />
      <path
         d="M1 19 L1 19.5 A0.5 0.5 0 0 0 2 19.5 L2 19 Z"
         id="path2443" />
      <path
         d="M3 19 h1v1h-1z Z"
         id="path2445" />
      <path
         d="M5 19 A1 1 0 0 1 4 20 L4 19 Z"
         id="path2447" />
      <path
         d="M7 19 L6.5 19 A0.5 0.5 0 0 0 6.5 20 L7 20 Z"
         id="path2449" />
      <path
         d="M7 19 L7.5 19 A0.5 0.5 0 0 1 7.5 20 L7 20 Z"
         id="path2451" />
      <path
         d="M9 19 A1 1 0 0 0 10 20 L10 19 Z"
         id="path2453" />
      <path
         d="M10 19 A1 1 0 0 1 11 20 L10 20 Z"
         id="path2455" />
      <circle
         cx="14.5"
         cy="19.5"
         r="0.5"
         id="circle2457" />
      <circle
         cx="16.5"
         cy="19.5"
         r="0.5"
         id="circle2459" />
      <path
         d="M19 19 L18.5 19 A0.5 0.5 0 0 0 18.5 20 L19 20 Z"
         id="path2461" />
      <path
         d="M19 19 A1 1 0 0 1 20 20 L19 20 Z"
         id="path2463" />
      <path
         d="M21 19 A1 1 0 0 0 22 20 L22 19 Z"
         id="path2465" />
      <path
         d="M22 19 h1v1h-1z Z"
         id="path2467" />
      <path
         d="M23 19 h1v1h-1z Z"
         id="path2469" />
      <path
         d="M26 19 A1 1 0 0 0 25 20 L26 20 Z"
         id="path2471" />
      <path
         d="M26 19 h1v1h-1z Z"
         id="path2473" />
      <path
         d="M28 19 A1 1 0 0 1 27 20 L27 19 Z"
         id="path2475" />
      <path
         d="M30 19 L30 19.5 A0.5 0.5 0 0 0 31 19.5 L31 19 Z"
         id="path2477" />
      <path
         d="M32 19 L32 19.5 A0.5 0.5 0 0 0 33 19.5 L33 19 Z"
         id="path2479" />
      <path
         d="M3 20 h1v1h-1z Z"
         id="path2481" />
      <path
         d="M10 20 h1v1h-1z Z"
         id="path2483" />
      <path
         d="M13 21 L13 20.5 A0.5 0.5 0 0 1 14 20.5 L14 21 Z"
         id="path2485" />
      <path
         d="M19 20 A1 1 0 0 0 20 21 L20 20 Z"
         id="path2487" />
      <path
         d="M20 20 L20.5 20 A0.5 0.5 0 0 1 20.5 21 L20 21 Z"
         id="path2489" />
      <path
         d="M22 20 A1 1 0 0 0 23 21 L23 20 Z"
         id="path2491" />
      <path
         d="M23 20 h1v1h-1z Z"
         id="path2493" />
      <path
         d="M24 20 h1v1h-1z Z"
         id="path2495" />
      <path
         d="M25 20 h1v1h-1z Z"
         id="path2497" />
      <path
         d="M27 20 A1 1 0 0 1 26 21 L26 20 Z"
         id="path2499" />
      <circle
         cx="31.5"
         cy="20.5"
         r="0.5"
         id="circle2501" />
      <path
         d="M3 21 h1v1h-1z Z"
         id="path2503" />
      <path
         d="M4 21 h1v1h-1z Z"
         id="path2505" />
      <path
         d="M5 21 h1v1h-1z Z"
         id="path2507" />
      <path
         d="M6 21 h1v1h-1z Z"
         id="path2509" />
      <path
         d="M7 21 L7.5 21 A0.5 0.5 0 0 1 7.5 22 L7 22 Z"
         id="path2511" />
      <path
         d="M10 21 A1 1 0 0 0 9 22 L10 22 Z"
         id="path2513" />
      <path
         d="M10 21 h1v1h-1z Z"
         id="path2515" />
      <path
         d="M13 21 A1 1 0 0 0 14 22 L14 21 Z"
         id="path2517" />
      <path
         d="M14 21 h1v1h-1z Z"
         id="path2519" />
      <path
         d="M15 21 h1v1h-1z Z"
         id="path2521" />
      <path
         d="M16 21 h1v1h-1z Z"
         id="path2523" />
      <path
         d="M17 21 A1 1 0 0 1 18 22 L17 22 Z"
         id="path2525" />
      <path
         d="M21 22 L21 21.5 A0.5 0.5 0 0 1 22 21.5 L22 22 Z"
         id="path2527" />
      <circle
         cx="29.5"
         cy="21.5"
         r="0.5"
         id="circle2529" />
      <path
         d="M32 22 L32 21.5 A0.5 0.5 0 0 1 33 21.5 L33 22 Z"
         id="path2531" />
      <path
         d="M2 22 A1 1 0 0 0 1 23 L2 23 Z"
         id="path2533" />
      <path
         d="M2 22 h1v1h-1z Z"
         id="path2535" />
      <path
         d="M3 22 h1v1h-1z Z"
         id="path2537" />
      <path
         d="M9 22 A1 1 0 0 0 8 23 L9 23 Z"
         id="path2539" />
      <path
         d="M9 22 h1v1h-1z Z"
         id="path2541" />
      <path
         d="M10 22 h1v1h-1z Z"
         id="path2543" />
      <path
         d="M11 22 L11.5 22 A0.5 0.5 0 0 1 11.5 23 L11 23 Z"
         id="path2545" />
      <path
         d="M17 22 h1v1h-1z Z"
         id="path2547" />
      <circle
         cx="19.5"
         cy="22.5"
         r="0.5"
         id="circle2549" />
      <path
         d="M21 22 h1v1h-1z Z"
         id="path2551" />
      <path
         d="M22 22 h1v1h-1z Z"
         id="path2553" />
      <path
         d="M23 22 h1v1h-1z Z"
         id="path2555" />
      <path
         d="M24 22 L24.5 22 A0.5 0.5 0 0 1 24.5 23 L24 23 Z"
         id="path2557" />
      <path
         d="M27 23 L27 22.5 A0.5 0.5 0 0 1 28 22.5 L28 23 Z"
         id="path2559" />
      <path
         d="M30 23 L30 22.5 A0.5 0.5 0 0 1 31 22.5 L31 23 Z"
         id="path2561" />
      <path
         d="M32 22 h1v1h-1z Z"
         id="path2563" />
      <path
         d="M33 22 L33.5 22 A0.5 0.5 0 0 1 33.5 23 L33 23 Z"
         id="path2565" />
      <path
         d="M1 23 h1v1h-1z Z"
         id="path2567" />
      <path
         d="M3 23 L3 23.5 A0.5 0.5 0 0 0 4 23.5 L4 23 Z"
         id="path2569" />
      <path
         d="M6 23 A1 1 0 0 0 5 24 L6 24 Z"
         id="path2571" />
      <path
         d="M6 23 h1v1h-1z Z"
         id="path2573" />
      <path
         d="M7 23 h1v1h-1z Z"
         id="path2575" />
      <path
         d="M8 23 h1v1h-1z Z"
         id="path2577" />
      <path
         d="M9 23 h1v1h-1z Z"
         id="path2579" />
      <path
         d="M13 23 A1 1 0 0 0 12 24 L13 24 Z"
         id="path2581" />
      <path
         d="M13 23 L13.5 23 A0.5 0.5 0 0 1 13.5 24 L13 24 Z"
         id="path2583" />
      <path
         d="M16 23 L15.5 23 A0.5 0.5 0 0 0 15.5 24 L16 24 Z"
         id="path2585" />
      <path
         d="M16 23 h1v1h-1z Z"
         id="path2587" />
      <path
         d="M17 23 h1v1h-1z Z"
         id="path2589" />
      <path
         d="M21 23 h1v1h-1z Z"
         id="path2591" />
      <path
         d="M26 23 A1 1 0 0 0 25 24 L26 24 Z"
         id="path2593" />
      <path
         d="M26 23 h1v1h-1z Z"
         id="path2595" />
      <path
         d="M27 23 h1v1h-1z Z"
         id="path2597" />
      <path
         d="M28 23 A1 1 0 0 1 29 24 L28 24 Z"
         id="path2599" />
      <path
         d="M30 23 h1v1h-1z Z"
         id="path2601" />
      <path
         d="M32 23 L32 23.5 A0.5 0.5 0 0 0 33 23.5 L33 23 Z"
         id="path2603" />
      <path
         d="M1 24 h1v1h-1z Z"
         id="path2605" />
      <path
         d="M5 24 L5 24.5 A0.5 0.5 0 0 0 6 24.5 L6 24 Z"
         id="path2607" />
      <path
         d="M9 24 h1v1h-1z Z"
         id="path2609" />
      <path
         d="M12 24 L11.5 24 A0.5 0.5 0 0 0 11.5 25 L12 25 Z"
         id="path2611" />
      <path
         d="M12 24 h1v1h-1z Z"
         id="path2613" />
      <path
         d="M16 24 h1v1h-1z Z"
         id="path2615" />
      <path
         d="M18 24 A1 1 0 0 1 17 25 L17 24 Z"
         id="path2617" />
      <circle
         cx="19.5"
         cy="24.5"
         r="0.5"
         id="circle2619" />
      <path
         d="M21 24 h1v1h-1z Z"
         id="path2621" />
      <path
         d="M22 24 h1v1h-1z Z"
         id="path2623" />
      <path
         d="M23 24 h1v1h-1z Z"
         id="path2625" />
      <path
         d="M24 24 h1v1h-1z Z"
         id="path2627" />
      <path
         d="M25 24 h1v1h-1z Z"
         id="path2629" />
      <path
         d="M26 24 h1v1h-1z Z"
         id="path2631" />
      <path
         d="M27 24 h1v1h-1z Z"
         id="path2633" />
      <path
         d="M28 24 h1v1h-1z Z"
         id="path2635" />
      <path
         d="M29 24 h1v1h-1z Z"
         id="path2637" />
      <path
         d="M30 24 h1v1h-1z Z"
         id="path2639" />
      <path
         d="M31 24 L31.5 24 A0.5 0.5 0 0 1 31.5 25 L31 25 Z"
         id="path2641" />
      <path
         d="M1 25 L1 25.5 A0.5 0.5 0 0 0 2 25.5 L2 25 Z"
         id="path2643" />
      <path
         d="M4 25 L3.5 25 A0.5 0.5 0 0 0 3.5 26 L4 26 Z"
         id="path2645" />
      <path
         d="M4 25 L4.5 25 A0.5 0.5 0 0 1 4.5 26 L4 26 Z"
         id="path2647" />
      <path
         d="M7 25 L6.5 25 A0.5 0.5 0 0 0 6.5 26 L7 26 Z"
         id="path2649" />
      <path
         d="M7 25 L7.5 25 A0.5 0.5 0 0 1 7.5 26 L7 26 Z"
         id="path2651" />
      <path
         d="M9 25 h1v1h-1z Z"
         id="path2653" />
      <path
         d="M12 25 L12 25.5 A0.5 0.5 0 0 0 13 25.5 L13 25 Z"
         id="path2655" />
      <path
         d="M16 25 L16 25.5 A0.5 0.5 0 0 0 17 25.5 L17 25 Z"
         id="path2657" />
      <circle
         cx="18.5"
         cy="25.5"
         r="0.5"
         id="circle2659" />
      <path
         d="M21 25 h1v1h-1z Z"
         id="path2661" />
      <path
         d="M24 25 A1 1 0 0 0 25 26 L25 25 Z"
         id="path2663" />
      <path
         d="M25 25 h1v1h-1z Z"
         id="path2665" />
      <path
         d="M26 25 h1v1h-1z Z"
         id="path2667" />
      <path
         d="M27 25 h1v1h-1z Z"
         id="path2669" />
      <path
         d="M28 25 h1v1h-1z Z"
         id="path2671" />
      <path
         d="M29 25 h1v1h-1z Z"
         id="path2673" />
      <path
         d="M33 26 L33 25.5 A0.5 0.5 0 0 1 34 25.5 L34 26 Z"
         id="path2675" />
      <path
         d="M9 26 h1v1h-1z Z"
         id="path2677" />
      <path
         d="M10 26 h1v1h-1z Z"
         id="path2679" />
      <path
         d="M11 26 A1 1 0 0 1 12 27 L11 27 Z"
         id="path2681" />
      <path
         d="M14 26 L13.5 26 A0.5 0.5 0 0 0 13.5 27 L14 27 Z"
         id="path2683" />
      <path
         d="M14 26 A1 1 0 0 1 15 27 L14 27 Z"
         id="path2685" />
      <circle
         cx="17.5"
         cy="26.5"
         r="0.5"
         id="circle2687" />
      <circle
         cx="19.5"
         cy="26.5"
         r="0.5"
         id="circle2689" />
      <path
         d="M21 26 h1v1h-1z Z"
         id="path2691" />
      <path
         d="M22 26 h1v1h-1z Z"
         id="path2693" />
      <path
         d="M23 26 A1 1 0 0 1 24 27 L23 27 Z"
         id="path2695" />
      <path
         d="M25 26 h1v1h-1z Z"
         id="path2697" />
      <path
         d="M29 26 h1v1h-1z Z"
         id="path2699" />
      <path
         d="M30 26 h1v1h-1z Z"
         id="path2701" />
      <path
         d="M31 26 L31.5 26 A0.5 0.5 0 0 1 31.5 27 L31 27 Z"
         id="path2703" />
      <path
         d="M33 26 L33 26.5 A0.5 0.5 0 0 0 34 26.5 L34 26 Z"
         id="path2705" />
      <path
         d="M9 27 A1 1 0 0 0 10 28 L10 27 Z"
         id="path2707" />
      <path
         d="M10 27 h1v1h-1z Z"
         id="path2709" />
      <path
         d="M11 27 h1v1h-1z Z"
         id="path2711" />
      <path
         d="M14 27 h1v1h-1z Z"
         id="path2713" />
      <path
         d="M15 27 h1v1h-1z Z"
         id="path2715" />
      <path
         d="M16 27 L16.5 27 A0.5 0.5 0 0 1 16.5 28 L16 28 Z"
         id="path2717" />
      <path
         d="M21 27 h1v1h-1z Z"
         id="path2719" />
      <path
         d="M23 27 h1v1h-1z Z"
         id="path2721" />
      <path
         d="M24 27 h1v1h-1z Z"
         id="path2723" />
      <path
         d="M25 27 h1v1h-1z Z"
         id="path2725" />
      <circle
         cx="27.5"
         cy="27.5"
         r="0.5"
         id="circle2727" />
      <path
         d="M29 27 h1v1h-1z Z"
         id="path2729" />
      <path
         d="M30 27 h1v1h-1z Z"
         id="path2731" />
      <path
         d="M32 28 L32 27.5 A0.5 0.5 0 0 1 33 27.5 L33 28 Z"
         id="path2733" />
      <path
         d="M10 28 A1 1 0 0 0 11 29 L11 28 Z"
         id="path2735" />
      <path
         d="M11 28 h1v1h-1z Z"
         id="path2737" />
      <path
         d="M14 28 A1 1 0 0 0 13 29 L14 29 Z"
         id="path2739" />
      <path
         d="M15 28 A1 1 0 0 1 14 29 L14 28 Z"
         id="path2741" />
      <path
         d="M17 29 L17 28.5 A0.5 0.5 0 0 1 18 28.5 L18 29 Z"
         id="path2743" />
      <path
         d="M21 28 A1 1 0 0 0 20 29 L21 29 Z"
         id="path2745" />
      <path
         d="M21 28 h1v1h-1z Z"
         id="path2747" />
      <path
         d="M22 28 h1v1h-1z Z"
         id="path2749" />
      <path
         d="M23 28 h1v1h-1z Z"
         id="path2751" />
      <path
         d="M24 28 h1v1h-1z Z"
         id="path2753" />
      <path
         d="M25 28 h1v1h-1z Z"
         id="path2755" />
      <path
         d="M29 28 h1v1h-1z Z"
         id="path2757" />
      <path
         d="M30 28 h1v1h-1z Z"
         id="path2759" />
      <path
         d="M31 28 h1v1h-1z Z"
         id="path2761" />
      <path
         d="M33 28 A1 1 0 0 1 32 29 L32 28 Z"
         id="path2763" />
      <path
         d="M9 30 L9 29.5 A0.5 0.5 0 0 1 10 29.5 L10 30 Z"
         id="path2765" />
      <path
         d="M11 29 L11 29.5 A0.5 0.5 0 0 0 12 29.5 L12 29 Z"
         id="path2767" />
      <path
         d="M13 29 L13 29.5 A0.5 0.5 0 0 0 14 29.5 L14 29 Z"
         id="path2769" />
      <path
         d="M16 29 L15.5 29 A0.5 0.5 0 0 0 15.5 30 L16 30 Z"
         id="path2771" />
      <path
         d="M16 29 h1v1h-1z Z"
         id="path2773" />
      <path
         d="M17 29 h1v1h-1z Z"
         id="path2775" />
      <path
         d="M18 29 A1 1 0 0 1 19 30 L18 30 Z"
         id="path2777" />
      <path
         d="M20 29 A1 1 0 0 0 21 30 L21 29 Z"
         id="path2779" />
      <path
         d="M21 29 h1v1h-1z Z"
         id="path2781" />
      <path
         d="M22 29 h1v1h-1z Z"
         id="path2783" />
      <path
         d="M24 29 A1 1 0 0 1 23 30 L23 29 Z"
         id="path2785" />
      <path
         d="M25 29 h1v1h-1z Z"
         id="path2787" />
      <path
         d="M26 29 h1v1h-1z Z"
         id="path2789" />
      <path
         d="M27 29 h1v1h-1z Z"
         id="path2791" />
      <path
         d="M28 29 h1v1h-1z Z"
         id="path2793" />
      <path
         d="M29 29 h1v1h-1z Z"
         id="path2795" />
      <path
         d="M9 30 h1v1h-1z Z"
         id="path2797" />
      <path
         d="M17 30 h1v1h-1z Z"
         id="path2799" />
      <path
         d="M18 30 h1v1h-1z Z"
         id="path2801" />
      <path
         d="M19 30 L19.5 30 A0.5 0.5 0 0 1 19.5 31 L19 31 Z"
         id="path2803" />
      <path
         d="M21 30 A1 1 0 0 0 22 31 L22 30 Z"
         id="path2805" />
      <path
         d="M22 30 h1v1h-1z Z"
         id="path2807" />
      <path
         d="M25 30 L24.5 30 A0.5 0.5 0 0 0 24.5 31 L25 31 Z"
         id="path2809" />
      <path
         d="M25 30 h1v1h-1z Z"
         id="path2811" />
      <path
         d="M27 30 A1 1 0 0 1 26 31 L26 30 Z"
         id="path2813" />
      <path
         d="M28 30 A1 1 0 0 0 29 31 L29 30 Z"
         id="path2815" />
      <path
         d="M30 30 A1 1 0 0 1 29 31 L29 30 Z"
         id="path2817" />
      <path
         d="M9 31 h1v1h-1z Z"
         id="path2819" />
      <path
         d="M10 31 L10.5 31 A0.5 0.5 0 0 1 10.5 32 L10 32 Z"
         id="path2821" />
      <path
         d="M13 31 A1 1 0 0 0 12 32 L13 32 Z"
         id="path2823" />
      <path
         d="M13 31 L13.5 31 A0.5 0.5 0 0 1 13.5 32 L13 32 Z"
         id="path2825" />
      <path
         d="M17 31 A1 1 0 0 0 16 32 L17 32 Z"
         id="path2827" />
      <path
         d="M18 31 A1 1 0 0 1 17 32 L17 31 Z"
         id="path2829" />
      <path
         d="M22 31 h1v1h-1z Z"
         id="path2831" />
      <path
         d="M25 31 L25 31.5 A0.5 0.5 0 0 0 26 31.5 L26 31 Z"
         id="path2833" />
      <circle
         cx="27.5"
         cy="31.5"
         r="0.5"
         id="circle2835" />
      <path
         d="M31 31 A1 1 0 0 0 30 32 L31 32 Z"
         id="path2837" />
      <path
         d="M31 31 h1v1h-1z Z"
         id="path2839" />
      <path
         d="M32 31 L32.5 31 A0.5 0.5 0 0 1 32.5 32 L32 32 Z"
         id="path2841" />
      <path
         d="M9 32 h1v1h-1z Z"
         id="path2843" />
      <path
         d="M12 32 A1 1 0 0 0 11 33 L12 33 Z"
         id="path2845" />
      <path
         d="M12 32 h1v1h-1z Z"
         id="path2847" />
      <path
         d="M16 32 L15.5 32 A0.5 0.5 0 0 0 15.5 33 L16 33 Z"
         id="path2849" />
      <path
         d="M17 32 A1 1 0 0 1 16 33 L16 32 Z"
         id="path2851" />
      <circle
         cx="19.5"
         cy="32.5"
         r="0.5"
         id="circle2853" />
      <path
         d="M22 32 h1v1h-1z Z"
         id="path2855" />
      <path
         d="M23 32 A1 1 0 0 1 24 33 L23 33 Z"
         id="path2857" />
      <circle
         cx="28.5"
         cy="32.5"
         r="0.5"
         id="circle2859" />
      <path
         d="M30 32 h1v1h-1z Z"
         id="path2861" />
      <path
         d="M32 32 A1 1 0 0 1 31 33 L31 32 Z"
         id="path2863" />
      <path
         d="M9 33 A1 1 0 0 0 10 34 L10 33 Z"
         id="path2865" />
      <path
         d="M10 33 h1v1h-1z Z"
         id="path2867" />
      <path
         d="M11 33 h1v1h-1z Z"
         id="path2869" />
      <path
         d="M13 33 A1 1 0 0 1 12 34 L12 33 Z"
         id="path2871" />
      <circle
         cx="18.5"
         cy="33.5"
         r="0.5"
         id="circle2873" />
      <path
         d="M21 33 L20.5 33 A0.5 0.5 0 0 0 20.5 34 L21 34 Z"
         id="path2875" />
      <path
         d="M21 33 h1v1h-1z Z"
         id="path2877" />
      <path
         d="M22 33 h1v1h-1z Z"
         id="path2879" />
      <path
         d="M23 33 h1v1h-1z Z"
         id="path2881" />
      <path
         d="M24 33 h1v1h-1z Z"
         id="path2883" />
      <path
         d="M25 33 L25.5 33 A0.5 0.5 0 0 1 25.5 34 L25 34 Z"
         id="path2885" />
      <circle
         cx="27.5"
         cy="33.5"
         r="0.5"
         id="circle2887" />
      <path
         d="M30 33 L30 33.5 A0.5 0.5 0 0 0 31 33.5 L31 33 Z"
         id="path2889" />
      <circle
         cx="32.5"
         cy="33.5"
         r="0.5"
         id="circle2891" />
    </g>
    <!-- EYEFRAME -->
    <g
       id="EYEFRAME"
       fill="#000000">
      <path
         d="M2 1 A1 1 0 0 0 1 2 L2 2 Z"
         id="path2894" />
      <path
         d="M2 1 h1v1h-1z Z"
         id="path2896" />
      <path
         d="M3 1 h1v1h-1z Z"
         id="path2898" />
      <path
         d="M4 1 h1v1h-1z Z"
         id="path2900" />
      <path
         d="M5 1 h1v1h-1z Z"
         id="path2902" />
      <path
         d="M6 1 h1v1h-1z Z"
         id="path2904" />
      <path
         d="M7 1 A1 1 0 0 1 8 2 L7 2 Z"
         id="path2906" />
      <path
         d="M28 1 A1 1 0 0 0 27 2 L28 2 Z"
         id="path2908" />
      <path
         d="M28 1 h1v1h-1z Z"
         id="path2910" />
      <path
         d="M29 1 h1v1h-1z Z"
         id="path2912" />
      <path
         d="M30 1 h1v1h-1z Z"
         id="path2914" />
      <path
         d="M31 1 h1v1h-1z Z"
         id="path2916" />
      <path
         d="M32 1 h1v1h-1z Z"
         id="path2918" />
      <path
         d="M33 1 A1 1 0 0 1 34 2 L33 2 Z"
         id="path2920" />
      <path
         d="M1 2 h1v1h-1z Z"
         id="path2922" />
      <path
         d="M7 2 h1v1h-1z Z"
         id="path2924" />
      <path
         d="M27 2 h1v1h-1z Z"
         id="path2926" />
      <path
         d="M33 2 h1v1h-1z Z"
         id="path2928" />
      <path
         d="M1 3 h1v1h-1z Z"
         id="path2930" />
      <path
         d="M7 3 h1v1h-1z Z"
         id="path2932" />
      <path
         d="M27 3 h1v1h-1z Z"
         id="path2934" />
      <path
         d="M33 3 h1v1h-1z Z"
         id="path2936" />
      <path
         d="M1 4 h1v1h-1z Z"
         id="path2938" />
      <path
         d="M7 4 h1v1h-1z Z"
         id="path2940" />
      <path
         d="M27 4 h1v1h-1z Z"
         id="path2942" />
      <path
         d="M33 4 h1v1h-1z Z"
         id="path2944" />
      <path
         d="M1 5 h1v1h-1z Z"
         id="path2946" />
      <path
         d="M7 5 h1v1h-1z Z"
         id="path2948" />
      <path
         d="M27 5 h1v1h-1z Z"
         id="path2950" />
      <path
         d="M33 5 h1v1h-1z Z"
         id="path2952" />
      <path
         d="M1 6 h1v1h-1z Z"
         id="path2954" />
      <path
         d="M7 6 h1v1h-1z Z"
         id="path2956" />
      <path
         d="M27 6 h1v1h-1z Z"
         id="path2958" />
      <path
         d="M33 6 h1v1h-1z Z"
         id="path2960" />
      <path
         d="M1 7 A1 1 0 0 0 2 8 L2 7 Z"
         id="path2962" />
      <path
         d="M2 7 h1v1h-1z Z"
         id="path2964" />
      <path
         d="M3 7 h1v1h-1z Z"
         id="path2966" />
      <path
         d="M4 7 h1v1h-1z Z"
         id="path2968" />
      <path
         d="M5 7 h1v1h-1z Z"
         id="path2970" />
      <path
         d="M6 7 h1v1h-1z Z"
         id="path2972" />
      <path
         d="M8 7 A1 1 0 0 1 7 8 L7 7 Z"
         id="path2974" />
      <path
         d="M27 7 A1 1 0 0 0 28 8 L28 7 Z"
         id="path2976" />
      <path
         d="M28 7 h1v1h-1z Z"
         id="path2978" />
      <path
         d="M29 7 h1v1h-1z Z"
         id="path2980" />
      <path
         d="M30 7 h1v1h-1z Z"
         id="path2982" />
      <path
         d="M31 7 h1v1h-1z Z"
         id="path2984" />
      <path
         d="M32 7 h1v1h-1z Z"
         id="path2986" />
      <path
         d="M34 7 A1 1 0 0 1 33 8 L33 7 Z"
         id="path2988" />
      <path
         d="M2 27 A1 1 0 0 0 1 28 L2 28 Z"
         id="path2990" />
      <path
         d="M2 27 h1v1h-1z Z"
         id="path2992" />
      <path
         d="M3 27 h1v1h-1z Z"
         id="path2994" />
      <path
         d="M4 27 h1v1h-1z Z"
         id="path2996" />
      <path
         d="M5 27 h1v1h-1z Z"
         id="path2998" />
      <path
         d="M6 27 h1v1h-1z Z"
         id="path3000" />
      <path
         d="M7 27 A1 1 0 0 1 8 28 L7 28 Z"
         id="path3002" />
      <path
         d="M1 28 h1v1h-1z Z"
         id="path3004" />
      <path
         d="M7 28 h1v1h-1z Z"
         id="path3006" />
      <path
         d="M1 29 h1v1h-1z Z"
         id="path3008" />
      <path
         d="M7 29 h1v1h-1z Z"
         id="path3010" />
      <path
         d="M1 30 h1v1h-1z Z"
         id="path3012" />
      <path
         d="M7 30 h1v1h-1z Z"
         id="path3014" />
      <path
         d="M1 31 h1v1h-1z Z"
         id="path3016" />
      <path
         d="M7 31 h1v1h-1z Z"
         id="path3018" />
      <path
         d="M1 32 h1v1h-1z Z"
         id="path3020" />
      <path
         d="M7 32 h1v1h-1z Z"
         id="path3022" />
      <path
         d="M1 33 A1 1 0 0 0 2 34 L2 33 Z"
         id="path3024" />
      <path
         d="M2 33 h1v1h-1z Z"
         id="path3026" />
      <path
         d="M3 33 h1v1h-1z Z"
         id="path3028" />
      <path
         d="M4 33 h1v1h-1z Z"
         id="path3030" />
      <path
         d="M5 33 h1v1h-1z Z"
         id="path3032" />
      <path
         d="M6 33 h1v1h-1z Z"
         id="path3034" />
      <path
         d="M8 33 A1 1 0 0 1 7 34 L7 33 Z"
         id="path3036" />
    </g>
    <!-- EYEBALL  -->
    <g
       id="EYEBALL"
       fill="#000000">
      <path
         d="M4 3 A1 1 0 0 0 3 4 L4 4 Z"
         id="path3039" />
      <path
         d="M4 3 h1v1h-1z Z"
         id="path3041" />
      <path
         d="M5 3 A1 1 0 0 1 6 4 L5 4 Z"
         id="path3043" />
      <path
         d="M30 3 A1 1 0 0 0 29 4 L30 4 Z"
         id="path3045" />
      <path
         d="M30 3 h1v1h-1z Z"
         id="path3047" />
      <path
         d="M31 3 A1 1 0 0 1 32 4 L31 4 Z"
         id="path3049" />
      <path
         d="M3 4 h1v1h-1z Z"
         id="path3051" />
      <path
         d="M4 4 h1v1h-1z Z"
         id="path3053" />
      <path
         d="M5 4 h1v1h-1z Z"
         id="path3055" />
      <path
         d="M29 4 h1v1h-1z Z"
         id="path3057" />
      <path
         d="M30 4 h1v1h-1z Z"
         id="path3059" />
      <path
         d="M31 4 h1v1h-1z Z"
         id="path3061" />
      <path
         d="M3 5 A1 1 0 0 0 4 6 L4 5 Z"
         id="path3063" />
      <path
         d="M4 5 h1v1h-1z Z"
         id="path3065" />
      <path
         d="M6 5 A1 1 0 0 1 5 6 L5 5 Z"
         id="path3067" />
      <path
         d="M29 5 A1 1 0 0 0 30 6 L30 5 Z"
         id="path3069" />
      <path
         d="M30 5 h1v1h-1z Z"
         id="path3071" />
      <path
         d="M32 5 A1 1 0 0 1 31 6 L31 5 Z"
         id="path3073" />
      <path
         d="M4 29 A1 1 0 0 0 3 30 L4 30 Z"
         id="path3075" />
      <path
         d="M4 29 h1v1h-1z Z"
         id="path3077" />
      <path
         d="M5 29 A1 1 0 0 1 6 30 L5 30 Z"
         id="path3079" />
      <path
         d="M3 30 h1v1h-1z Z"
         id="path3081" />
      <path
         d="M4 30 h1v1h-1z Z"
         id="path3083" />
      <path
         d="M5 30 h1v1h-1z Z"
         id="path3085" />
      <path
         d="M3 31 A1 1 0 0 0 4 32 L4 31 Z"
         id="path3087" />
      <path
         d="M4 31 h1v1h-1z Z"
         id="path3089" />
      <path
         d="M6 31 A1 1 0 0 1 5 32 L5 31 Z"
         id="path3091" />
    </g>
  </g>
</svg>
