<svg
	xmlns="http://www.w3.org/2000/svg"
	version="1.1"
	viewBox="0 0 35 35 "
	stroke="none">

	<!-- QrBackground  -->
	<g id="QrBackground" fill="#FFFFFF">
		<rect width="35" height="35" rx="2" ry="2" />
	</g>

	<!-- QrBody  -->
	<g id="QrBody">

		<!-- BODY     -->
		<g id="BODY" fill="#000000">
			<path d="M11 2 L11 1.5 A0.5 0.5 0 0 1 12 1.5 L12 2 Z"/>
			<circle cx="13.5" cy="1.5" r="0.5"/>
			<path d="M15 2 L15 1.5 A0.5 0.5 0 0 1 16 1.5 L16 2 Z"/>
			<path d="M17 2 L17 1.5 A0.5 0.5 0 0 1 18 1.5 L18 2 Z"/>
			<path d="M22 1 A1 1 0 0 0 21 2 L22 2 Z"/>
			<path d="M22 1 h1v1h-1z Z"/>
			<path d="M23 1 L23.5 1 A0.5 0.5 0 0 1 23.5 2 L23 2 Z"/>
			<circle cx="9.5" cy="2.5" r="0.5"/>
			<path d="M11 2 L11 2.5 A0.5 0.5 0 0 0 12 2.5 L12 2 Z"/>
			<path d="M15 2 L14.5 2 A0.5 0.5 0 0 0 14.5 3 L15 3 Z"/>
			<path d="M15 2 h1v1h-1z Z"/>
			<path d="M16 2 h1v1h-1z Z"/>
			<path d="M17 2 h1v1h-1z Z"/>
			<path d="M19 3 L19 2.5 A0.5 0.5 0 0 1 20 2.5 L20 3 Z"/>
			<path d="M21 2 h1v1h-1z Z"/>
			<path d="M22 2 h1v1h-1z Z"/>
			<path d="M13 4 L13 3.5 A0.5 0.5 0 0 1 14 3.5 L14 4 Z"/>
			<path d="M16 3 h1v1h-1z Z"/>
			<path d="M18 3 A1 1 0 0 1 17 4 L17 3 Z"/>
			<path d="M19 3 A1 1 0 0 0 20 4 L20 3 Z"/>
			<path d="M20 3 h1v1h-1z Z"/>
			<path d="M21 3 h1v1h-1z Z"/>
			<path d="M22 3 h1v1h-1z Z"/>
			<path d="M24 4 L24 3.5 A0.5 0.5 0 0 1 25 3.5 L25 4 Z"/>
			<path d="M10 4 L9.5 4 A0.5 0.5 0 0 0 9.5 5 L10 5 Z"/>
			<path d="M10 4 h1v1h-1z Z"/>
			<path d="M11 4 L11.5 4 A0.5 0.5 0 0 1 11.5 5 L11 5 Z"/>
			<path d="M13 4 L13 4.5 A0.5 0.5 0 0 0 14 4.5 L14 4 Z"/>
			<path d="M16 4 L15.5 4 A0.5 0.5 0 0 0 15.5 5 L16 5 Z"/>
			<path d="M17 4 A1 1 0 0 1 16 5 L16 4 Z"/>
			<path d="M18 5 L18 4.5 A0.5 0.5 0 0 1 19 4.5 L19 5 Z"/>
			<path d="M20 4 A1 1 0 0 0 21 5 L21 4 Z"/>
			<path d="M21 4 h1v1h-1z Z"/>
			<path d="M22 4 h1v1h-1z Z"/>
			<path d="M23 4 h1v1h-1z Z"/>
			<path d="M24 4 h1v1h-1z Z"/>
			<path d="M25 4 A1 1 0 0 1 26 5 L25 5 Z"/>
			<path d="M10 5 h1v1h-1z Z"/>
			<path d="M18 5 L17.5 5 A0.5 0.5 0 0 0 17.5 6 L18 6 Z"/>
			<path d="M18 5 h1v1h-1z Z"/>
			<path d="M19 5 L19.5 5 A0.5 0.5 0 0 1 19.5 6 L19 6 Z"/>
			<path d="M21 5 h1v1h-1z Z"/>
			<path d="M22 5 h1v1h-1z Z"/>
			<path d="M23 5 h1v1h-1z Z"/>
			<path d="M24 5 h1v1h-1z Z"/>
			<path d="M25 5 h1v1h-1z Z"/>
			<path d="M10 6 A1 1 0 0 0 9 7 L10 7 Z"/>
			<path d="M11 6 A1 1 0 0 1 10 7 L10 6 Z"/>
			<path d="M13 6 L12.5 6 A0.5 0.5 0 0 0 12.5 7 L13 7 Z"/>
			<path d="M13 6 h1v1h-1z Z"/>
			<path d="M14 6 L14.5 6 A0.5 0.5 0 0 1 14.5 7 L14 7 Z"/>
			<circle cx="16.5" cy="6.5" r="0.5"/>
			<path d="M18 6 L18 6.5 A0.5 0.5 0 0 0 19 6.5 L19 6 Z"/>
			<path d="M21 6 h1v1h-1z Z"/>
			<path d="M25 6 h1v1h-1z Z"/>
			<path d="M9 7 L9 7.5 A0.5 0.5 0 0 0 10 7.5 L10 7 Z"/>
			<path d="M11 8 L11 7.5 A0.5 0.5 0 0 1 12 7.5 L12 8 Z"/>
			<path d="M13 7 L13 7.5 A0.5 0.5 0 0 0 14 7.5 L14 7 Z"/>
			<circle cx="15.5" cy="7.5" r="0.5"/>
			<path d="M17 8 L17 7.5 A0.5 0.5 0 0 1 18 7.5 L18 8 Z"/>
			<circle cx="19.5" cy="7.5" r="0.5"/>
			<path d="M21 7 L21 7.5 A0.5 0.5 0 0 0 22 7.5 L22 7 Z"/>
			<circle cx="23.5" cy="7.5" r="0.5"/>
			<path d="M25 7 L25 7.5 A0.5 0.5 0 0 0 26 7.5 L26 7 Z"/>
			<path d="M11 8 A1 1 0 0 0 10 9 L11 9 Z"/>
			<path d="M11 8 h1v1h-1z Z"/>
			<path d="M12 8 A1 1 0 0 1 13 9 L12 9 Z"/>
			<path d="M17 8 A1 1 0 0 0 16 9 L17 9 Z"/>
			<path d="M18 8 A1 1 0 0 1 17 9 L17 8 Z"/>
			<circle cx="20.5" cy="8.5" r="0.5"/>
			<path d="M22 9 L22 8.5 A0.5 0.5 0 0 1 23 8.5 L23 9 Z"/>
			<path d="M24 9 L24 8.5 A0.5 0.5 0 0 1 25 8.5 L25 9 Z"/>
			<path d="M2 9 L1.5 9 A0.5 0.5 0 0 0 1.5 10 L2 10 Z"/>
			<path d="M2 9 h1v1h-1z Z"/>
			<path d="M3 9 h1v1h-1z Z"/>
			<path d="M4 9 h1v1h-1z Z"/>
			<path d="M5 9 L5.5 9 A0.5 0.5 0 0 1 5.5 10 L5 10 Z"/>
			<path d="M8 9 L7.5 9 A0.5 0.5 0 0 0 7.5 10 L8 10 Z"/>
			<path d="M8 9 h1v1h-1z Z"/>
			<path d="M9 9 h1v1h-1z Z"/>
			<path d="M11 9 A1 1 0 0 1 10 10 L10 9 Z"/>
			<path d="M12 9 L12 9.5 A0.5 0.5 0 0 0 13 9.5 L13 9 Z"/>
			<path d="M15 9 A1 1 0 0 0 14 10 L15 10 Z"/>
			<path d="M15 9 h1v1h-1z Z"/>
			<path d="M16 9 h1v1h-1z Z"/>
			<circle cx="18.5" cy="9.5" r="0.5"/>
			<path d="M22 9 h1v1h-1z Z"/>
			<path d="M23 9 h1v1h-1z Z"/>
			<path d="M24 9 h1v1h-1z Z"/>
			<path d="M25 9 h1v1h-1z Z"/>
			<path d="M26 9 L26.5 9 A0.5 0.5 0 0 1 26.5 10 L26 10 Z"/>
			<circle cx="28.5" cy="9.5" r="0.5"/>
			<circle cx="30.5" cy="9.5" r="0.5"/>
			<path d="M32 10 L32 9.5 A0.5 0.5 0 0 1 33 9.5 L33 10 Z"/>
			<path d="M2 10 h1v1h-1z Z"/>
			<path d="M4 10 A1 1 0 0 1 3 11 L3 10 Z"/>
			<path d="M6 11 L6 10.5 A0.5 0.5 0 0 1 7 10.5 L7 11 Z"/>
			<path d="M8 10 h1v1h-1z Z"/>
			<path d="M10 10 A1 1 0 0 1 9 11 L9 10 Z"/>
			<path d="M11 11 L11 10.5 A0.5 0.5 0 0 1 12 10.5 L12 11 Z"/>
			<path d="M14 10 L13.5 10 A0.5 0.5 0 0 0 13.5 11 L14 11 Z"/>
			<path d="M14 10 h1v1h-1z Z"/>
			<path d="M16 10 h1v1h-1z Z"/>
			<path d="M17 10 A1 1 0 0 1 18 11 L17 11 Z"/>
			<path d="M22 10 A1 1 0 0 0 21 11 L22 11 Z"/>
			<path d="M22 10 h1v1h-1z Z"/>
			<path d="M23 10 h1v1h-1z Z"/>
			<path d="M25 10 A1 1 0 0 1 24 11 L24 10 Z"/>
			<circle cx="27.5" cy="10.5" r="0.5"/>
			<path d="M32 10 L31.5 10 A0.5 0.5 0 0 0 31.5 11 L32 11 Z"/>
			<path d="M32 10 h1v1h-1z Z"/>
			<path d="M33 10 L33.5 10 A0.5 0.5 0 0 1 33.5 11 L33 11 Z"/>
			<path d="M2 11 h1v1h-1z Z"/>
			<path d="M6 11 A1 1 0 0 0 7 12 L7 11 Z"/>
			<path d="M7 11 h1v1h-1z Z"/>
			<path d="M9 11 A1 1 0 0 1 8 12 L8 11 Z"/>
			<path d="M11 11 L11 11.5 A0.5 0.5 0 0 0 12 11.5 L12 11 Z"/>
			<path d="M14 11 A1 1 0 0 0 15 12 L15 11 Z"/>
			<path d="M15 11 h1v1h-1z Z"/>
			<path d="M16 11 h1v1h-1z Z"/>
			<path d="M17 11 h1v1h-1z Z"/>
			<path d="M18 11 L18.5 11 A0.5 0.5 0 0 1 18.5 12 L18 12 Z"/>
			<path d="M21 11 h1v1h-1z Z"/>
			<path d="M22 11 h1v1h-1z Z"/>
			<path d="M24 11 A1 1 0 0 1 23 12 L23 11 Z"/>
			<path d="M29 11 L28.5 11 A0.5 0.5 0 0 0 28.5 12 L29 12 Z"/>
			<path d="M29 11 h1v1h-1z Z"/>
			<path d="M30 11 L30.5 11 A0.5 0.5 0 0 1 30.5 12 L30 12 Z"/>
			<path d="M32 11 L32 11.5 A0.5 0.5 0 0 0 33 11.5 L33 11 Z"/>
			<path d="M2 12 A1 1 0 0 0 3 13 L3 12 Z"/>
			<path d="M3 12 h1v1h-1z Z"/>
			<path d="M4 12 h1v1h-1z Z"/>
			<path d="M5 12 A1 1 0 0 1 6 13 L5 13 Z"/>
			<path d="M9 13 L9 12.5 A0.5 0.5 0 0 1 10 12.5 L10 13 Z"/>
			<path d="M13 13 L13 12.5 A0.5 0.5 0 0 1 14 12.5 L14 13 Z"/>
			<path d="M15 12 h1v1h-1z Z"/>
			<path d="M17 12 h1v1h-1z Z"/>
			<path d="M21 12 A1 1 0 0 0 22 13 L22 12 Z"/>
			<path d="M22 12 h1v1h-1z Z"/>
			<path d="M26 12 A1 1 0 0 0 25 13 L26 13 Z"/>
			<path d="M26 12 h1v1h-1z Z"/>
			<path d="M27 12 L27.5 12 A0.5 0.5 0 0 1 27.5 13 L27 13 Z"/>
			<path d="M29 12 h1v1h-1z Z"/>
			<circle cx="31.5" cy="12.5" r="0.5"/>
			<circle cx="1.5" cy="13.5" r="0.5"/>
			<path d="M3 13 h1v1h-1z Z"/>
			<path d="M5 13 A1 1 0 0 0 6 14 L6 13 Z"/>
			<path d="M6 13 h1v1h-1z Z"/>
			<path d="M7 13 h1v1h-1z Z"/>
			<path d="M8 13 h1v1h-1z Z"/>
			<path d="M9 13 h1v1h-1z Z"/>
			<path d="M10 13 h1v1h-1z Z"/>
			<path d="M11 13 L11.5 13 A0.5 0.5 0 0 1 11.5 14 L11 14 Z"/>
			<path d="M13 13 A1 1 0 0 0 14 14 L14 13 Z"/>
			<path d="M14 13 h1v1h-1z Z"/>
			<path d="M16 13 A1 1 0 0 1 15 14 L15 13 Z"/>
			<path d="M17 13 h1v1h-1z Z"/>
			<path d="M18 13 L18.5 13 A0.5 0.5 0 0 1 18.5 14 L18 14 Z"/>
			<path d="M20 14 L20 13.5 A0.5 0.5 0 0 1 21 13.5 L21 14 Z"/>
			<path d="M22 13 A1 1 0 0 0 23 14 L23 13 Z"/>
			<path d="M23 13 A1 1 0 0 1 24 14 L23 14 Z"/>
			<path d="M25 13 A1 1 0 0 0 26 14 L26 13 Z"/>
			<path d="M27 13 A1 1 0 0 1 26 14 L26 13 Z"/>
			<path d="M29 13 A1 1 0 0 0 28 14 L29 14 Z"/>
			<path d="M29 13 h1v1h-1z Z"/>
			<path d="M30 13 L30.5 13 A0.5 0.5 0 0 1 30.5 14 L30 14 Z"/>
			<path d="M3 14 h1v1h-1z Z"/>
			<path d="M6 14 L6 14.5 A0.5 0.5 0 0 0 7 14.5 L7 14 Z"/>
			<path d="M8 14 h1v1h-1z Z"/>
			<path d="M9 14 h1v1h-1z Z"/>
			<path d="M17 14 A1 1 0 0 0 16 15 L17 15 Z"/>
			<path d="M17 14 h1v1h-1z Z"/>
			<path d="M20 14 L19.5 14 A0.5 0.5 0 0 0 19.5 15 L20 15 Z"/>
			<path d="M21 14 A1 1 0 0 1 20 15 L20 14 Z"/>
			<path d="M23 14 h1v1h-1z Z"/>
			<path d="M24 14 L24.5 14 A0.5 0.5 0 0 1 24.5 15 L24 15 Z"/>
			<path d="M28 14 A1 1 0 0 0 27 15 L28 15 Z"/>
			<path d="M28 14 h1v1h-1z Z"/>
			<path d="M33 14 A1 1 0 0 0 32 15 L33 15 Z"/>
			<path d="M33 14 L33.5 14 A0.5 0.5 0 0 1 33.5 15 L33 15 Z"/>
			<path d="M3 15 h1v1h-1z Z"/>
			<path d="M4 15 L4.5 15 A0.5 0.5 0 0 1 4.5 16 L4 16 Z"/>
			<path d="M8 15 L7.5 15 A0.5 0.5 0 0 0 7.5 16 L8 16 Z"/>
			<path d="M8 15 h1v1h-1z Z"/>
			<path d="M9 15 h1v1h-1z Z"/>
			<path d="M10 15 h1v1h-1z Z"/>
			<path d="M11 15 h1v1h-1z Z"/>
			<path d="M12 15 h1v1h-1z Z"/>
			<path d="M13 15 L13.5 15 A0.5 0.5 0 0 1 13.5 16 L13 16 Z"/>
			<path d="M16 15 h1v1h-1z Z"/>
			<path d="M18 15 A1 1 0 0 1 17 16 L17 15 Z"/>
			<path d="M23 15 h1v1h-1z Z"/>
			<path d="M27 15 A1 1 0 0 0 26 16 L27 16 Z"/>
			<path d="M27 15 h1v1h-1z Z"/>
			<path d="M28 15 h1v1h-1z Z"/>
			<path d="M29 15 L29.5 15 A0.5 0.5 0 0 1 29.5 16 L29 16 Z"/>
			<path d="M32 15 L32 15.5 A0.5 0.5 0 0 0 33 15.5 L33 15 Z"/>
			<path d="M3 16 L2.5 16 A0.5 0.5 0 0 0 2.5 17 L3 17 Z"/>
			<path d="M3 16 h1v1h-1z Z"/>
			<path d="M6 17 L6 16.5 A0.5 0.5 0 0 1 7 16.5 L7 17 Z"/>
			<path d="M10 16 h1v1h-1z Z"/>
			<path d="M12 16 h1v1h-1z Z"/>
			<path d="M16 16 A1 1 0 0 0 15 17 L16 17 Z"/>
			<path d="M17 16 A1 1 0 0 1 16 17 L16 16 Z"/>
			<circle cx="20.5" cy="16.5" r="0.5"/>
			<path d="M23 16 A1 1 0 0 0 22 17 L23 17 Z"/>
			<path d="M23 16 h1v1h-1z Z"/>
			<path d="M26 16 A1 1 0 0 0 25 17 L26 17 Z"/>
			<path d="M26 16 h1v1h-1z Z"/>
			<path d="M27 16 h1v1h-1z Z"/>
			<path d="M28 16 h1v1h-1z Z"/>
			<circle cx="31.5" cy="16.5" r="0.5"/>
			<path d="M3 17 h1v1h-1z Z"/>
			<path d="M4 17 A1 1 0 0 1 5 18 L4 18 Z"/>
			<path d="M6 17 A1 1 0 0 0 7 18 L7 17 Z"/>
			<path d="M7 17 h1v1h-1z Z"/>
			<path d="M8 17 h1v1h-1z Z"/>
			<path d="M9 17 h1v1h-1z Z"/>
			<path d="M10 17 h1v1h-1z Z"/>
			<path d="M11 17 h1v1h-1z Z"/>
			<path d="M13 17 A1 1 0 0 1 12 18 L12 17 Z"/>
			<path d="M15 17 L14.5 17 A0.5 0.5 0 0 0 14.5 18 L15 18 Z"/>
			<path d="M15 17 h1v1h-1z Z"/>
			<path d="M18 17 A1 1 0 0 0 17 18 L18 18 Z"/>
			<path d="M18 17 L18.5 17 A0.5 0.5 0 0 1 18.5 18 L18 18 Z"/>
			<path d="M22 17 h1v1h-1z Z"/>
			<path d="M23 17 h1v1h-1z Z"/>
			<path d="M25 17 A1 1 0 0 0 26 18 L26 17 Z"/>
			<path d="M27 17 A1 1 0 0 1 26 18 L26 17 Z"/>
			<path d="M28 17 A1 1 0 0 0 29 18 L29 17 Z"/>
			<path d="M29 17 L29.5 17 A0.5 0.5 0 0 1 29.5 18 L29 18 Z"/>
			<path d="M32 18 L32 17.5 A0.5 0.5 0 0 1 33 17.5 L33 18 Z"/>
			<path d="M2 18 A1 1 0 0 0 1 19 L2 19 Z"/>
			<path d="M2 18 h1v1h-1z Z"/>
			<path d="M3 18 h1v1h-1z Z"/>
			<path d="M4 18 h1v1h-1z Z"/>
			<path d="M9 18 h1v1h-1z Z"/>
			<path d="M11 18 L11 18.5 A0.5 0.5 0 0 0 12 18.5 L12 18 Z"/>
			<circle cx="13.5" cy="18.5" r="0.5"/>
			<path d="M15 18 L15 18.5 A0.5 0.5 0 0 0 16 18.5 L16 18 Z"/>
			<path d="M17 18 L17 18.5 A0.5 0.5 0 0 0 18 18.5 L18 18 Z"/>
			<path d="M22 18 A1 1 0 0 0 21 19 L22 19 Z"/>
			<path d="M22 18 h1v1h-1z Z"/>
			<path d="M23 18 h1v1h-1z Z"/>
			<path d="M24 18 L24.5 18 A0.5 0.5 0 0 1 24.5 19 L24 19 Z"/>
			<path d="M27 19 L27 18.5 A0.5 0.5 0 0 1 28 18.5 L28 19 Z"/>
			<path d="M30 19 L30 18.5 A0.5 0.5 0 0 1 31 18.5 L31 19 Z"/>
			<path d="M32 18 h1v1h-1z Z"/>
			<path d="M33 18 L33.5 18 A0.5 0.5 0 0 1 33.5 19 L33 19 Z"/>
			<path d="M1 19 L1 19.5 A0.5 0.5 0 0 0 2 19.5 L2 19 Z"/>
			<path d="M3 19 h1v1h-1z Z"/>
			<path d="M5 19 A1 1 0 0 1 4 20 L4 19 Z"/>
			<path d="M7 19 L6.5 19 A0.5 0.5 0 0 0 6.5 20 L7 20 Z"/>
			<path d="M7 19 L7.5 19 A0.5 0.5 0 0 1 7.5 20 L7 20 Z"/>
			<path d="M9 19 A1 1 0 0 0 10 20 L10 19 Z"/>
			<path d="M10 19 A1 1 0 0 1 11 20 L10 20 Z"/>
			<circle cx="14.5" cy="19.5" r="0.5"/>
			<circle cx="16.5" cy="19.5" r="0.5"/>
			<path d="M19 19 L18.5 19 A0.5 0.5 0 0 0 18.5 20 L19 20 Z"/>
			<path d="M19 19 A1 1 0 0 1 20 20 L19 20 Z"/>
			<path d="M21 19 A1 1 0 0 0 22 20 L22 19 Z"/>
			<path d="M22 19 h1v1h-1z Z"/>
			<path d="M23 19 h1v1h-1z Z"/>
			<path d="M26 19 A1 1 0 0 0 25 20 L26 20 Z"/>
			<path d="M26 19 h1v1h-1z Z"/>
			<path d="M28 19 A1 1 0 0 1 27 20 L27 19 Z"/>
			<path d="M30 19 L30 19.5 A0.5 0.5 0 0 0 31 19.5 L31 19 Z"/>
			<path d="M32 19 L32 19.5 A0.5 0.5 0 0 0 33 19.5 L33 19 Z"/>
			<path d="M3 20 h1v1h-1z Z"/>
			<path d="M10 20 h1v1h-1z Z"/>
			<path d="M13 21 L13 20.5 A0.5 0.5 0 0 1 14 20.5 L14 21 Z"/>
			<path d="M19 20 A1 1 0 0 0 20 21 L20 20 Z"/>
			<path d="M20 20 L20.5 20 A0.5 0.5 0 0 1 20.5 21 L20 21 Z"/>
			<path d="M22 20 A1 1 0 0 0 23 21 L23 20 Z"/>
			<path d="M23 20 h1v1h-1z Z"/>
			<path d="M24 20 h1v1h-1z Z"/>
			<path d="M25 20 h1v1h-1z Z"/>
			<path d="M27 20 A1 1 0 0 1 26 21 L26 20 Z"/>
			<circle cx="31.5" cy="20.5" r="0.5"/>
			<path d="M3 21 h1v1h-1z Z"/>
			<path d="M4 21 h1v1h-1z Z"/>
			<path d="M5 21 h1v1h-1z Z"/>
			<path d="M6 21 h1v1h-1z Z"/>
			<path d="M7 21 L7.5 21 A0.5 0.5 0 0 1 7.5 22 L7 22 Z"/>
			<path d="M10 21 A1 1 0 0 0 9 22 L10 22 Z"/>
			<path d="M10 21 h1v1h-1z Z"/>
			<path d="M13 21 A1 1 0 0 0 14 22 L14 21 Z"/>
			<path d="M14 21 h1v1h-1z Z"/>
			<path d="M15 21 h1v1h-1z Z"/>
			<path d="M16 21 h1v1h-1z Z"/>
			<path d="M17 21 A1 1 0 0 1 18 22 L17 22 Z"/>
			<path d="M21 22 L21 21.5 A0.5 0.5 0 0 1 22 21.5 L22 22 Z"/>
			<circle cx="29.5" cy="21.5" r="0.5"/>
			<path d="M32 22 L32 21.5 A0.5 0.5 0 0 1 33 21.5 L33 22 Z"/>
			<path d="M2 22 A1 1 0 0 0 1 23 L2 23 Z"/>
			<path d="M2 22 h1v1h-1z Z"/>
			<path d="M3 22 h1v1h-1z Z"/>
			<path d="M9 22 A1 1 0 0 0 8 23 L9 23 Z"/>
			<path d="M9 22 h1v1h-1z Z"/>
			<path d="M10 22 h1v1h-1z Z"/>
			<path d="M11 22 L11.5 22 A0.5 0.5 0 0 1 11.5 23 L11 23 Z"/>
			<path d="M17 22 h1v1h-1z Z"/>
			<circle cx="19.5" cy="22.5" r="0.5"/>
			<path d="M21 22 h1v1h-1z Z"/>
			<path d="M22 22 h1v1h-1z Z"/>
			<path d="M23 22 h1v1h-1z Z"/>
			<path d="M24 22 L24.5 22 A0.5 0.5 0 0 1 24.5 23 L24 23 Z"/>
			<path d="M27 23 L27 22.5 A0.5 0.5 0 0 1 28 22.5 L28 23 Z"/>
			<path d="M30 23 L30 22.5 A0.5 0.5 0 0 1 31 22.5 L31 23 Z"/>
			<path d="M32 22 h1v1h-1z Z"/>
			<path d="M33 22 L33.5 22 A0.5 0.5 0 0 1 33.5 23 L33 23 Z"/>
			<path d="M1 23 h1v1h-1z Z"/>
			<path d="M3 23 L3 23.5 A0.5 0.5 0 0 0 4 23.5 L4 23 Z"/>
			<path d="M6 23 A1 1 0 0 0 5 24 L6 24 Z"/>
			<path d="M6 23 h1v1h-1z Z"/>
			<path d="M7 23 h1v1h-1z Z"/>
			<path d="M8 23 h1v1h-1z Z"/>
			<path d="M9 23 h1v1h-1z Z"/>
			<path d="M13 23 A1 1 0 0 0 12 24 L13 24 Z"/>
			<path d="M13 23 L13.5 23 A0.5 0.5 0 0 1 13.5 24 L13 24 Z"/>
			<path d="M16 23 L15.5 23 A0.5 0.5 0 0 0 15.5 24 L16 24 Z"/>
			<path d="M16 23 h1v1h-1z Z"/>
			<path d="M17 23 h1v1h-1z Z"/>
			<path d="M21 23 h1v1h-1z Z"/>
			<path d="M26 23 A1 1 0 0 0 25 24 L26 24 Z"/>
			<path d="M26 23 h1v1h-1z Z"/>
			<path d="M27 23 h1v1h-1z Z"/>
			<path d="M28 23 A1 1 0 0 1 29 24 L28 24 Z"/>
			<path d="M30 23 h1v1h-1z Z"/>
			<path d="M32 23 L32 23.5 A0.5 0.5 0 0 0 33 23.5 L33 23 Z"/>
			<path d="M1 24 h1v1h-1z Z"/>
			<path d="M5 24 L5 24.5 A0.5 0.5 0 0 0 6 24.5 L6 24 Z"/>
			<path d="M9 24 h1v1h-1z Z"/>
			<path d="M12 24 L11.5 24 A0.5 0.5 0 0 0 11.5 25 L12 25 Z"/>
			<path d="M12 24 h1v1h-1z Z"/>
			<path d="M16 24 h1v1h-1z Z"/>
			<path d="M18 24 A1 1 0 0 1 17 25 L17 24 Z"/>
			<circle cx="19.5" cy="24.5" r="0.5"/>
			<path d="M21 24 h1v1h-1z Z"/>
			<path d="M22 24 h1v1h-1z Z"/>
			<path d="M23 24 h1v1h-1z Z"/>
			<path d="M24 24 h1v1h-1z Z"/>
			<path d="M25 24 h1v1h-1z Z"/>
			<path d="M26 24 h1v1h-1z Z"/>
			<path d="M27 24 h1v1h-1z Z"/>
			<path d="M28 24 h1v1h-1z Z"/>
			<path d="M29 24 h1v1h-1z Z"/>
			<path d="M30 24 h1v1h-1z Z"/>
			<path d="M31 24 L31.5 24 A0.5 0.5 0 0 1 31.5 25 L31 25 Z"/>
			<path d="M1 25 L1 25.5 A0.5 0.5 0 0 0 2 25.5 L2 25 Z"/>
			<path d="M4 25 L3.5 25 A0.5 0.5 0 0 0 3.5 26 L4 26 Z"/>
			<path d="M4 25 L4.5 25 A0.5 0.5 0 0 1 4.5 26 L4 26 Z"/>
			<path d="M7 25 L6.5 25 A0.5 0.5 0 0 0 6.5 26 L7 26 Z"/>
			<path d="M7 25 L7.5 25 A0.5 0.5 0 0 1 7.5 26 L7 26 Z"/>
			<path d="M9 25 h1v1h-1z Z"/>
			<path d="M12 25 L12 25.5 A0.5 0.5 0 0 0 13 25.5 L13 25 Z"/>
			<path d="M16 25 L16 25.5 A0.5 0.5 0 0 0 17 25.5 L17 25 Z"/>
			<circle cx="18.5" cy="25.5" r="0.5"/>
			<path d="M21 25 h1v1h-1z Z"/>
			<path d="M24 25 A1 1 0 0 0 25 26 L25 25 Z"/>
			<path d="M25 25 h1v1h-1z Z"/>
			<path d="M26 25 h1v1h-1z Z"/>
			<path d="M27 25 h1v1h-1z Z"/>
			<path d="M28 25 h1v1h-1z Z"/>
			<path d="M29 25 h1v1h-1z Z"/>
			<path d="M33 26 L33 25.5 A0.5 0.5 0 0 1 34 25.5 L34 26 Z"/>
			<path d="M9 26 h1v1h-1z Z"/>
			<path d="M10 26 h1v1h-1z Z"/>
			<path d="M11 26 A1 1 0 0 1 12 27 L11 27 Z"/>
			<path d="M14 26 L13.5 26 A0.5 0.5 0 0 0 13.5 27 L14 27 Z"/>
			<path d="M14 26 A1 1 0 0 1 15 27 L14 27 Z"/>
			<circle cx="17.5" cy="26.5" r="0.5"/>
			<circle cx="19.5" cy="26.5" r="0.5"/>
			<path d="M21 26 h1v1h-1z Z"/>
			<path d="M22 26 h1v1h-1z Z"/>
			<path d="M23 26 A1 1 0 0 1 24 27 L23 27 Z"/>
			<path d="M25 26 h1v1h-1z Z"/>
			<path d="M29 26 h1v1h-1z Z"/>
			<path d="M30 26 h1v1h-1z Z"/>
			<path d="M31 26 L31.5 26 A0.5 0.5 0 0 1 31.5 27 L31 27 Z"/>
			<path d="M33 26 L33 26.5 A0.5 0.5 0 0 0 34 26.5 L34 26 Z"/>
			<path d="M9 27 A1 1 0 0 0 10 28 L10 27 Z"/>
			<path d="M10 27 h1v1h-1z Z"/>
			<path d="M11 27 h1v1h-1z Z"/>
			<path d="M14 27 h1v1h-1z Z"/>
			<path d="M15 27 h1v1h-1z Z"/>
			<path d="M16 27 L16.5 27 A0.5 0.5 0 0 1 16.5 28 L16 28 Z"/>
			<path d="M21 27 h1v1h-1z Z"/>
			<path d="M23 27 h1v1h-1z Z"/>
			<path d="M24 27 h1v1h-1z Z"/>
			<path d="M25 27 h1v1h-1z Z"/>
			<circle cx="27.5" cy="27.5" r="0.5"/>
			<path d="M29 27 h1v1h-1z Z"/>
			<path d="M30 27 h1v1h-1z Z"/>
			<path d="M32 28 L32 27.5 A0.5 0.5 0 0 1 33 27.5 L33 28 Z"/>
			<path d="M10 28 A1 1 0 0 0 11 29 L11 28 Z"/>
			<path d="M11 28 h1v1h-1z Z"/>
			<path d="M14 28 A1 1 0 0 0 13 29 L14 29 Z"/>
			<path d="M15 28 A1 1 0 0 1 14 29 L14 28 Z"/>
			<path d="M17 29 L17 28.5 A0.5 0.5 0 0 1 18 28.5 L18 29 Z"/>
			<path d="M21 28 A1 1 0 0 0 20 29 L21 29 Z"/>
			<path d="M21 28 h1v1h-1z Z"/>
			<path d="M22 28 h1v1h-1z Z"/>
			<path d="M23 28 h1v1h-1z Z"/>
			<path d="M24 28 h1v1h-1z Z"/>
			<path d="M25 28 h1v1h-1z Z"/>
			<path d="M29 28 h1v1h-1z Z"/>
			<path d="M30 28 h1v1h-1z Z"/>
			<path d="M31 28 h1v1h-1z Z"/>
			<path d="M33 28 A1 1 0 0 1 32 29 L32 28 Z"/>
			<path d="M9 30 L9 29.5 A0.5 0.5 0 0 1 10 29.5 L10 30 Z"/>
			<path d="M11 29 L11 29.5 A0.5 0.5 0 0 0 12 29.5 L12 29 Z"/>
			<path d="M13 29 L13 29.5 A0.5 0.5 0 0 0 14 29.5 L14 29 Z"/>
			<path d="M16 29 L15.5 29 A0.5 0.5 0 0 0 15.5 30 L16 30 Z"/>
			<path d="M16 29 h1v1h-1z Z"/>
			<path d="M17 29 h1v1h-1z Z"/>
			<path d="M18 29 A1 1 0 0 1 19 30 L18 30 Z"/>
			<path d="M20 29 A1 1 0 0 0 21 30 L21 29 Z"/>
			<path d="M21 29 h1v1h-1z Z"/>
			<path d="M22 29 h1v1h-1z Z"/>
			<path d="M24 29 A1 1 0 0 1 23 30 L23 29 Z"/>
			<path d="M25 29 h1v1h-1z Z"/>
			<path d="M26 29 h1v1h-1z Z"/>
			<path d="M27 29 h1v1h-1z Z"/>
			<path d="M28 29 h1v1h-1z Z"/>
			<path d="M29 29 h1v1h-1z Z"/>
			<path d="M9 30 h1v1h-1z Z"/>
			<path d="M17 30 h1v1h-1z Z"/>
			<path d="M18 30 h1v1h-1z Z"/>
			<path d="M19 30 L19.5 30 A0.5 0.5 0 0 1 19.5 31 L19 31 Z"/>
			<path d="M21 30 A1 1 0 0 0 22 31 L22 30 Z"/>
			<path d="M22 30 h1v1h-1z Z"/>
			<path d="M25 30 L24.5 30 A0.5 0.5 0 0 0 24.5 31 L25 31 Z"/>
			<path d="M25 30 h1v1h-1z Z"/>
			<path d="M27 30 A1 1 0 0 1 26 31 L26 30 Z"/>
			<path d="M28 30 A1 1 0 0 0 29 31 L29 30 Z"/>
			<path d="M30 30 A1 1 0 0 1 29 31 L29 30 Z"/>
			<path d="M9 31 h1v1h-1z Z"/>
			<path d="M10 31 L10.5 31 A0.5 0.5 0 0 1 10.5 32 L10 32 Z"/>
			<path d="M13 31 A1 1 0 0 0 12 32 L13 32 Z"/>
			<path d="M13 31 L13.5 31 A0.5 0.5 0 0 1 13.5 32 L13 32 Z"/>
			<path d="M17 31 A1 1 0 0 0 16 32 L17 32 Z"/>
			<path d="M18 31 A1 1 0 0 1 17 32 L17 31 Z"/>
			<path d="M22 31 h1v1h-1z Z"/>
			<path d="M25 31 L25 31.5 A0.5 0.5 0 0 0 26 31.5 L26 31 Z"/>
			<circle cx="27.5" cy="31.5" r="0.5"/>
			<path d="M31 31 A1 1 0 0 0 30 32 L31 32 Z"/>
			<path d="M31 31 h1v1h-1z Z"/>
			<path d="M32 31 L32.5 31 A0.5 0.5 0 0 1 32.5 32 L32 32 Z"/>
			<path d="M9 32 h1v1h-1z Z"/>
			<path d="M12 32 A1 1 0 0 0 11 33 L12 33 Z"/>
			<path d="M12 32 h1v1h-1z Z"/>
			<path d="M16 32 L15.5 32 A0.5 0.5 0 0 0 15.5 33 L16 33 Z"/>
			<path d="M17 32 A1 1 0 0 1 16 33 L16 32 Z"/>
			<circle cx="19.5" cy="32.5" r="0.5"/>
			<path d="M22 32 h1v1h-1z Z"/>
			<path d="M23 32 A1 1 0 0 1 24 33 L23 33 Z"/>
			<circle cx="28.5" cy="32.5" r="0.5"/>
			<path d="M30 32 h1v1h-1z Z"/>
			<path d="M32 32 A1 1 0 0 1 31 33 L31 32 Z"/>
			<path d="M9 33 A1 1 0 0 0 10 34 L10 33 Z"/>
			<path d="M10 33 h1v1h-1z Z"/>
			<path d="M11 33 h1v1h-1z Z"/>
			<path d="M13 33 A1 1 0 0 1 12 34 L12 33 Z"/>
			<circle cx="18.5" cy="33.5" r="0.5"/>
			<path d="M21 33 L20.5 33 A0.5 0.5 0 0 0 20.5 34 L21 34 Z"/>
			<path d="M21 33 h1v1h-1z Z"/>
			<path d="M22 33 h1v1h-1z Z"/>
			<path d="M23 33 h1v1h-1z Z"/>
			<path d="M24 33 h1v1h-1z Z"/>
			<path d="M25 33 L25.5 33 A0.5 0.5 0 0 1 25.5 34 L25 34 Z"/>
			<circle cx="27.5" cy="33.5" r="0.5"/>
			<path d="M30 33 L30 33.5 A0.5 0.5 0 0 0 31 33.5 L31 33 Z"/>
			<circle cx="32.5" cy="33.5" r="0.5"/>
		</g>
		<!-- EYEFRAME -->
		<g id="EYEFRAME" fill="#000000">
			<path d="M2 1 A1 1 0 0 0 1 2 L2 2 Z"/>
			<path d="M2 1 h1v1h-1z Z"/>
			<path d="M3 1 h1v1h-1z Z"/>
			<path d="M4 1 h1v1h-1z Z"/>
			<path d="M5 1 h1v1h-1z Z"/>
			<path d="M6 1 h1v1h-1z Z"/>
			<path d="M7 1 A1 1 0 0 1 8 2 L7 2 Z"/>
			<path d="M28 1 A1 1 0 0 0 27 2 L28 2 Z"/>
			<path d="M28 1 h1v1h-1z Z"/>
			<path d="M29 1 h1v1h-1z Z"/>
			<path d="M30 1 h1v1h-1z Z"/>
			<path d="M31 1 h1v1h-1z Z"/>
			<path d="M32 1 h1v1h-1z Z"/>
			<path d="M33 1 A1 1 0 0 1 34 2 L33 2 Z"/>
			<path d="M1 2 h1v1h-1z Z"/>
			<path d="M7 2 h1v1h-1z Z"/>
			<path d="M27 2 h1v1h-1z Z"/>
			<path d="M33 2 h1v1h-1z Z"/>
			<path d="M1 3 h1v1h-1z Z"/>
			<path d="M7 3 h1v1h-1z Z"/>
			<path d="M27 3 h1v1h-1z Z"/>
			<path d="M33 3 h1v1h-1z Z"/>
			<path d="M1 4 h1v1h-1z Z"/>
			<path d="M7 4 h1v1h-1z Z"/>
			<path d="M27 4 h1v1h-1z Z"/>
			<path d="M33 4 h1v1h-1z Z"/>
			<path d="M1 5 h1v1h-1z Z"/>
			<path d="M7 5 h1v1h-1z Z"/>
			<path d="M27 5 h1v1h-1z Z"/>
			<path d="M33 5 h1v1h-1z Z"/>
			<path d="M1 6 h1v1h-1z Z"/>
			<path d="M7 6 h1v1h-1z Z"/>
			<path d="M27 6 h1v1h-1z Z"/>
			<path d="M33 6 h1v1h-1z Z"/>
			<path d="M1 7 A1 1 0 0 0 2 8 L2 7 Z"/>
			<path d="M2 7 h1v1h-1z Z"/>
			<path d="M3 7 h1v1h-1z Z"/>
			<path d="M4 7 h1v1h-1z Z"/>
			<path d="M5 7 h1v1h-1z Z"/>
			<path d="M6 7 h1v1h-1z Z"/>
			<path d="M8 7 A1 1 0 0 1 7 8 L7 7 Z"/>
			<path d="M27 7 A1 1 0 0 0 28 8 L28 7 Z"/>
			<path d="M28 7 h1v1h-1z Z"/>
			<path d="M29 7 h1v1h-1z Z"/>
			<path d="M30 7 h1v1h-1z Z"/>
			<path d="M31 7 h1v1h-1z Z"/>
			<path d="M32 7 h1v1h-1z Z"/>
			<path d="M34 7 A1 1 0 0 1 33 8 L33 7 Z"/>
			<path d="M2 27 A1 1 0 0 0 1 28 L2 28 Z"/>
			<path d="M2 27 h1v1h-1z Z"/>
			<path d="M3 27 h1v1h-1z Z"/>
			<path d="M4 27 h1v1h-1z Z"/>
			<path d="M5 27 h1v1h-1z Z"/>
			<path d="M6 27 h1v1h-1z Z"/>
			<path d="M7 27 A1 1 0 0 1 8 28 L7 28 Z"/>
			<path d="M1 28 h1v1h-1z Z"/>
			<path d="M7 28 h1v1h-1z Z"/>
			<path d="M1 29 h1v1h-1z Z"/>
			<path d="M7 29 h1v1h-1z Z"/>
			<path d="M1 30 h1v1h-1z Z"/>
			<path d="M7 30 h1v1h-1z Z"/>
			<path d="M1 31 h1v1h-1z Z"/>
			<path d="M7 31 h1v1h-1z Z"/>
			<path d="M1 32 h1v1h-1z Z"/>
			<path d="M7 32 h1v1h-1z Z"/>
			<path d="M1 33 A1 1 0 0 0 2 34 L2 33 Z"/>
			<path d="M2 33 h1v1h-1z Z"/>
			<path d="M3 33 h1v1h-1z Z"/>
			<path d="M4 33 h1v1h-1z Z"/>
			<path d="M5 33 h1v1h-1z Z"/>
			<path d="M6 33 h1v1h-1z Z"/>
			<path d="M8 33 A1 1 0 0 1 7 34 L7 33 Z"/>
		</g>
		<!-- EYEBALL  -->
		<g id="EYEBALL" fill="#000000">
			<path d="M4 3 A1 1 0 0 0 3 4 L4 4 Z"/>
			<path d="M4 3 h1v1h-1z Z"/>
			<path d="M5 3 A1 1 0 0 1 6 4 L5 4 Z"/>
			<path d="M30 3 A1 1 0 0 0 29 4 L30 4 Z"/>
			<path d="M30 3 h1v1h-1z Z"/>
			<path d="M31 3 A1 1 0 0 1 32 4 L31 4 Z"/>
			<path d="M3 4 h1v1h-1z Z"/>
			<path d="M4 4 h1v1h-1z Z"/>
			<path d="M5 4 h1v1h-1z Z"/>
			<path d="M29 4 h1v1h-1z Z"/>
			<path d="M30 4 h1v1h-1z Z"/>
			<path d="M31 4 h1v1h-1z Z"/>
			<path d="M3 5 A1 1 0 0 0 4 6 L4 5 Z"/>
			<path d="M4 5 h1v1h-1z Z"/>
			<path d="M6 5 A1 1 0 0 1 5 6 L5 5 Z"/>
			<path d="M29 5 A1 1 0 0 0 30 6 L30 5 Z"/>
			<path d="M30 5 h1v1h-1z Z"/>
			<path d="M32 5 A1 1 0 0 1 31 6 L31 5 Z"/>
			<path d="M4 29 A1 1 0 0 0 3 30 L4 30 Z"/>
			<path d="M4 29 h1v1h-1z Z"/>
			<path d="M5 29 A1 1 0 0 1 6 30 L5 30 Z"/>
			<path d="M3 30 h1v1h-1z Z"/>
			<path d="M4 30 h1v1h-1z Z"/>
			<path d="M5 30 h1v1h-1z Z"/>
			<path d="M3 31 A1 1 0 0 0 4 32 L4 31 Z"/>
			<path d="M4 31 h1v1h-1z Z"/>
			<path d="M6 31 A1 1 0 0 1 5 32 L5 31 Z"/>
		</g>
	</g>
</svg>
